<svg width="142" height="36" viewBox="0 0 142 36" fill="none" xmlns="http://www.w3.org/2000/svg">
<path d="M0.881828 13.4H16.5369V14.16H0.881828V13.4ZM1.08202 27.24L20.4804 27.36V28.12L0.28125 28V0H18.3386V0.76H1.08202V27.24Z" fill="white"/>
<path d="M19.4794 28.1141L27.9275 17.2341L27.8875 17.5141L19.9599 7.43406H20.9608L28.448 17.0341H28.1277L35.6149 7.43406H36.5758L28.5681 17.6741L28.6082 17.1941L37.1764 28.1141H36.1354L28.2078 17.8741H28.408L20.4804 28.1141H19.4794Z" fill="white"/>
<path d="M55.5137 28.12C53.6186 28.12 51.9236 27.68 50.4288 26.8C48.9341 25.8933 47.7463 24.6533 46.8654 23.08C46.0113 21.5067 45.5842 19.7067 45.5842 17.68C45.5842 15.6267 46.0113 13.8133 46.8654 12.24C47.7463 10.6667 48.9341 9.44 50.4288 8.56C51.9236 7.65333 53.6186 7.2 55.5137 7.2C57.4089 7.2 59.1172 7.65333 60.6387 8.56C62.1601 9.44 63.3613 10.6667 64.2421 12.24C65.123 13.8133 65.5634 15.6267 65.5634 17.68C65.5634 19.7067 65.123 21.5067 64.2421 23.08C63.3613 24.6533 62.1601 25.8933 60.6387 26.8C59.1172 27.68 57.4089 28.12 55.5137 28.12ZM45.4641 35.76V7.32H46.2648V14.92L45.8645 17.72L46.2648 20.52V35.76H45.4641ZM55.5137 27.36C57.2754 27.36 58.8503 26.96 60.2383 26.16C61.653 25.3333 62.7607 24.1867 63.5615 22.72C64.3622 21.2533 64.7626 19.5733 64.7626 17.68C64.7626 15.76 64.3622 14.08 63.5615 12.64C62.7607 11.1733 61.653 10.0267 60.2383 9.2C58.8503 8.37333 57.2754 7.96 55.5137 7.96C53.752 7.96 52.1638 8.37333 50.7492 9.2C49.3612 10.0267 48.2668 11.1733 47.466 12.64C46.6652 14.08 46.2648 15.76 46.2648 17.68C46.2648 19.5733 46.6652 21.2533 47.466 22.72C48.2668 24.1867 49.3612 25.3333 50.7492 26.16C52.1638 26.96 53.752 27.36 55.5137 27.36Z" fill="white"/>
<path d="M72.3258 28V7.32H73.1266V13.04L73.0465 12.92C73.6071 11.1067 74.5813 9.70667 75.9693 8.72C77.384 7.70667 79.1457 7.2 81.2544 7.2V8C81.2277 8 81.1877 8 81.1343 8C81.1076 8 81.0676 8 81.0142 8C78.5318 8 76.5966 8.8 75.2086 10.4C73.8206 11.9733 73.1266 14.1333 73.1266 16.88V28H72.3258Z" fill="white"/>
<path d="M94.9542 28.12C92.9522 28.12 91.1772 27.68 89.629 26.8C88.0809 25.8933 86.853 24.6533 85.9455 23.08C85.0647 21.48 84.6242 19.6667 84.6242 17.64C84.6242 15.5867 85.038 13.7867 85.8654 12.24C86.6929 10.6667 87.8273 9.44 89.2687 8.56C90.7368 7.65333 92.3783 7.2 94.1934 7.2C96.0085 7.2 97.6367 7.64 99.0781 8.52C100.546 9.37333 101.694 10.5733 102.521 12.12C103.376 13.6667 103.803 15.44 103.803 17.44C103.803 17.4667 103.803 17.4933 103.803 17.52C103.803 17.5467 103.803 17.5867 103.803 17.64H85.0647V16.88H103.362L103.042 17.48C103.042 15.6667 102.655 14.04 101.881 12.6C101.107 11.16 100.052 10.0267 98.7178 9.2C97.4099 8.37333 95.9017 7.96 94.1934 7.96C92.5118 7.96 91.0037 8.37333 89.6691 9.2C88.3345 10.0267 87.2801 11.16 86.506 12.6C85.7587 14.04 85.385 15.6667 85.385 17.48V17.64C85.385 19.5333 85.7987 21.2133 86.6261 22.68C87.4536 24.1467 88.588 25.2933 90.0294 26.12C91.4708 26.9467 93.1124 27.36 94.9542 27.36C96.3422 27.36 97.6501 27.0933 98.8779 26.56C100.132 26.0267 101.173 25.2267 102.001 24.16L102.561 24.72C101.654 25.84 100.533 26.6933 99.1982 27.28C97.8636 27.84 96.4489 28.12 94.9542 28.12Z" fill="white"/>
<path d="M115.33 28.12C113.649 28.12 112.074 27.8533 110.606 27.32C109.138 26.7867 108.017 26.1067 107.243 25.28L107.723 24.64C108.47 25.36 109.511 26 110.846 26.56C112.181 27.0933 113.675 27.36 115.33 27.36C117.786 27.36 119.548 26.9333 120.615 26.08C121.683 25.2267 122.217 24.12 122.217 22.76C122.217 21.7733 121.963 21 121.456 20.44C120.949 19.8533 120.268 19.4133 119.414 19.12C118.587 18.8 117.666 18.5467 116.652 18.36C115.637 18.1733 114.623 17.9733 113.609 17.76C112.594 17.5467 111.66 17.2533 110.806 16.88C109.979 16.48 109.311 15.9467 108.804 15.28C108.297 14.5867 108.043 13.6667 108.043 12.52C108.043 11.5867 108.297 10.72 108.804 9.92C109.311 9.12 110.099 8.46667 111.166 7.96C112.261 7.45333 113.662 7.2 115.37 7.2C116.652 7.2 117.919 7.4 119.174 7.8C120.429 8.17333 121.443 8.68 122.217 9.32L121.736 9.96C120.909 9.29333 119.935 8.8 118.814 8.48C117.693 8.13333 116.545 7.96 115.37 7.96C113.102 7.96 111.447 8.4 110.406 9.28C109.391 10.16 108.884 11.24 108.884 12.52C108.884 13.5333 109.138 14.3467 109.645 14.96C110.152 15.5467 110.819 16 111.647 16.32C112.501 16.64 113.435 16.8933 114.449 17.08C115.464 17.2667 116.465 17.4667 117.452 17.68C118.467 17.8933 119.388 18.1867 120.215 18.56C121.069 18.9333 121.75 19.4533 122.257 20.12C122.764 20.76 123.018 21.64 123.018 22.76C123.018 23.8 122.737 24.7333 122.177 25.56C121.616 26.36 120.762 26.9867 119.614 27.44C118.493 27.8933 117.065 28.12 115.33 28.12Z" fill="white"/>
<path d="M133.864 28.12C132.182 28.12 130.607 27.8533 129.139 27.32C127.671 26.7867 126.55 26.1067 125.776 25.28L126.256 24.64C127.004 25.36 128.045 26 129.379 26.56C130.714 27.0933 132.209 27.36 133.864 27.36C136.319 27.36 138.081 26.9333 139.149 26.08C140.217 25.2267 140.75 24.12 140.75 22.76C140.75 21.7733 140.497 21 139.99 20.44C139.482 19.8533 138.802 19.4133 137.948 19.12C137.12 18.8 136.199 18.5467 135.185 18.36C134.171 18.1733 133.156 17.9733 132.142 17.76C131.128 17.5467 130.194 17.2533 129.339 16.88C128.512 16.48 127.845 15.9467 127.337 15.28C126.83 14.5867 126.577 13.6667 126.577 12.52C126.577 11.5867 126.83 10.72 127.337 9.92C127.845 9.12 128.632 8.46667 129.7 7.96C130.794 7.45333 132.195 7.2 133.904 7.2C135.185 7.2 136.453 7.4 137.707 7.8C138.962 8.17333 139.976 8.68 140.75 9.32L140.27 9.96C139.442 9.29333 138.468 8.8 137.347 8.48C136.226 8.13333 135.078 7.96 133.904 7.96C131.635 7.96 129.98 8.4 128.939 9.28C127.925 10.16 127.418 11.24 127.418 12.52C127.418 13.5333 127.671 14.3467 128.178 14.96C128.685 15.5467 129.353 16 130.18 16.32C131.034 16.64 131.969 16.8933 132.983 17.08C133.997 17.2667 134.998 17.4667 135.986 17.68C137 17.8933 137.921 18.1867 138.748 18.56C139.603 18.9333 140.283 19.4533 140.79 20.12C141.298 20.76 141.551 21.64 141.551 22.76C141.551 23.8 141.271 24.7333 140.71 25.56C140.15 26.36 139.296 26.9867 138.148 27.44C137.027 27.8933 135.599 28.12 133.864 28.12Z" fill="white"/>
</svg>
