<svg width="168" height="285" viewBox="0 0 168 285" fill="none" xmlns="http://www.w3.org/2000/svg">
<path d="M81.5 77V93M73 85H90" stroke="white" stroke-width="4" stroke-linecap="round"/>
<path d="M85.9999 164.019C86.0102 163.19 85.3471 162.51 84.5187 162.5C83.6904 162.49 83.0105 163.153 83.0001 163.981L85.9999 164.019ZM84 204L92.8471 189.109L75.5279 188.893L84 204ZM83.0001 163.981L82.6689 190.482L85.6686 190.52L85.9999 164.019L83.0001 163.981Z" fill="white"/>
<path d="M14 45.0287H155" stroke="#FEFEFE" stroke-width="3" stroke-linecap="round"/>
<path d="M28.5303 44.2386C28.8353 38.8596 32.4961 27.8885 44.6988 27.036C51.4102 26.5671 62.8807 30.5983 63.0027 44.2386C62.8502 50.8863 65.9619 64.486 79.6289 65.7039C84.7641 66.1606 95.6753 63.2681 98.2379 48.0445C99.425 40.9924 102.204 27.036 116.847 27.036C121.728 27.036 131.887 30.4765 133.473 44.2386" stroke="#0CAE93" stroke-width="7" stroke-linecap="round"/>
<path d="M24.1 20.17C22.9067 20.17 22.0533 19.9133 21.54 19.4C21.0267 18.88 20.7467 18.0267 20.7 16.84C20.6933 16.5267 20.6867 16.2233 20.68 15.93C20.68 15.63 20.6833 15.33 20.69 15.03C20.7033 14.73 20.7233 14.4233 20.75 14.11H22.79C22.7633 14.6433 22.7467 15.1767 22.74 15.71C22.74 16.2433 22.7567 16.7467 22.79 17.22C22.8167 17.6133 22.9333 17.9067 23.14 18.1C23.3467 18.2867 23.6633 18.38 24.09 18.38C24.51 18.38 24.8133 18.2867 25 18.1C25.1867 17.9067 25.3 17.6133 25.34 17.22C25.36 16.92 25.3733 16.64 25.38 16.38C25.3867 16.12 25.3867 15.8567 25.38 15.59C25.3733 15.3233 25.36 15.03 25.34 14.71C25.3133 14.3167 25.2333 13.98 25.1 13.7C24.9667 13.42 24.7233 13.2333 24.37 13.14L23.03 12.8C22.43 12.6467 21.96 12.4233 21.62 12.13C21.28 11.83 21.0367 11.45 20.89 10.99C20.7433 10.53 20.66 9.98 20.64 9.34C20.6333 8.98 20.63 8.61333 20.63 8.24C20.6367 7.86667 20.6433 7.49667 20.65 7.13C20.6767 6.34333 20.8033 5.71 21.03 5.23C21.2633 4.74333 21.6267 4.39 22.12 4.17C22.62 3.94333 23.2767 3.83 24.09 3.83C25.2433 3.83 26.0767 4.08667 26.59 4.6C27.11 5.11333 27.3933 5.96 27.44 7.14C27.4533 7.46667 27.4567 7.87 27.45 8.35C27.4433 8.82333 27.43 9.29667 27.41 9.77H25.33C25.35 9.27 25.36 8.77 25.36 8.27C25.3667 7.76333 25.36 7.26 25.34 6.76C25.3333 6.37333 25.2233 6.08667 25.01 5.9C24.7967 5.70667 24.4867 5.61 24.08 5.61C23.6533 5.61 23.3433 5.70667 23.15 5.9C22.9567 6.08667 22.8433 6.37333 22.81 6.76C22.7767 7.18667 22.76 7.61667 22.76 8.05C22.7667 8.48333 22.7833 8.91333 22.81 9.34C22.8367 9.76667 22.92 10.11 23.06 10.37C23.2 10.63 23.4533 10.8067 23.82 10.9L25.03 11.19C25.6633 11.3367 26.1567 11.5667 26.51 11.88C26.8633 12.1867 27.1133 12.5767 27.26 13.05C27.4067 13.5167 27.49 14.07 27.51 14.71C27.5233 14.99 27.53 15.2433 27.53 15.47C27.53 15.6967 27.5267 15.92 27.52 16.14C27.5133 16.3533 27.5067 16.5867 27.5 16.84C27.4533 18.0267 27.17 18.88 26.65 19.4C26.1367 19.9133 25.2867 20.17 24.1 20.17ZM32.8245 20.17C32.0245 20.17 31.3845 20.06 30.9045 19.84C30.4312 19.62 30.0845 19.2667 29.8645 18.78C29.6445 18.2933 29.5112 17.6533 29.4645 16.86C29.4512 16.48 29.4379 16.0433 29.4245 15.55C29.4179 15.0567 29.4145 14.5467 29.4145 14.02C29.4145 13.4933 29.4179 12.98 29.4245 12.48C29.4379 11.98 29.4512 11.53 29.4645 11.13C29.5112 10.3433 29.6445 9.71 29.8645 9.23C30.0845 8.74333 30.4312 8.39 30.9045 8.17C31.3845 7.94333 32.0245 7.83 32.8245 7.83C33.6379 7.83 34.2779 7.94333 34.7445 8.17C35.2179 8.39 35.5645 8.74333 35.7845 9.23C36.0045 9.71 36.1345 10.3433 36.1745 11.13C36.1879 11.5167 36.1979 11.9567 36.2045 12.45C36.2112 12.9367 36.2145 13.4467 36.2145 13.98C36.2145 14.5067 36.2112 15.02 36.2045 15.52C36.1979 16.0133 36.1879 16.46 36.1745 16.86C36.1345 17.6467 36.0045 18.2833 35.7845 18.77C35.5645 19.2567 35.2179 19.6133 34.7445 19.84C34.2779 20.06 33.6379 20.17 32.8245 20.17ZM32.8245 18.52C33.2445 18.52 33.5445 18.43 33.7245 18.25C33.9045 18.07 33.9979 17.78 34.0045 17.38C34.0245 16.7933 34.0379 16.22 34.0445 15.66C34.0579 15.1 34.0645 14.5433 34.0645 13.99C34.0645 13.4367 34.0579 12.8833 34.0445 12.33C34.0379 11.77 34.0245 11.1967 34.0045 10.61C33.9979 10.2167 33.9045 9.93 33.7245 9.75C33.5512 9.57 33.2512 9.48 32.8245 9.48C32.4112 9.48 32.1112 9.57 31.9245 9.75C31.7379 9.93 31.6379 10.2167 31.6245 10.61C31.6112 11.1967 31.5979 11.77 31.5845 12.33C31.5779 12.89 31.5745 13.4467 31.5745 14C31.5745 14.5533 31.5779 15.11 31.5845 15.67C31.5979 16.23 31.6112 16.8 31.6245 17.38C31.6379 17.78 31.7379 18.07 31.9245 18.25C32.1112 18.43 32.4112 18.52 32.8245 18.52ZM38.4639 20V8H40.6239V9.18H41.0139C41.2539 8.74 41.5139 8.40667 41.7939 8.18C42.0806 7.94667 42.4972 7.83 43.0439 7.83C43.5839 7.83 44.0272 7.94667 44.3739 8.18C44.7206 8.41333 44.9706 8.79333 45.1239 9.32H45.4939C45.7339 8.87333 46.0172 8.51333 46.3439 8.24C46.6706 7.96667 47.1106 7.83 47.6639 7.83C48.3906 7.83 48.9472 8.05333 49.3339 8.5C49.7272 8.94 49.9239 9.67667 49.9239 10.71V20H47.7639V10.53C47.7639 10.15 47.6839 9.87333 47.5239 9.7C47.3639 9.52667 47.1172 9.44 46.7839 9.44C46.4772 9.44 46.1872 9.54 45.9139 9.74C45.6472 9.93333 45.4472 10.1933 45.3139 10.52V20H43.1539V10.53C43.1472 10.15 43.0639 9.87333 42.9039 9.7C42.7439 9.52667 42.4972 9.44 42.1639 9.44C41.8439 9.44 41.5372 9.52667 41.2439 9.7C40.9572 9.87333 40.7506 10.1333 40.6239 10.48V20H38.4639ZM59.2116 20.17C58.4782 20.17 57.9216 19.9467 57.5416 19.5C57.1682 19.0533 56.9582 18.3167 56.9116 17.29C56.8982 16.85 56.8882 16.35 56.8816 15.79C56.8749 15.2233 56.8716 14.64 56.8716 14.04C56.8716 13.44 56.8749 12.8533 56.8816 12.28C56.8882 11.7067 56.8982 11.1833 56.9116 10.71C56.9582 9.67667 57.1749 8.94 57.5616 8.5C57.9549 8.05333 58.5149 7.83 59.2416 7.83C59.7882 7.83 60.2016 7.94667 60.4816 8.18C60.7616 8.40667 61.0216 8.74 61.2616 9.18H61.5916V4H63.7516V20H61.5916V18.82H61.2516C61.0116 19.2533 60.7482 19.5867 60.4616 19.82C60.1749 20.0533 59.7582 20.17 59.2116 20.17ZM60.0516 18.56C60.3782 18.56 60.6849 18.4733 60.9716 18.3C61.2582 18.12 61.4649 17.86 61.5916 17.52V10.48C61.4649 10.1333 61.2582 9.87333 60.9716 9.7C60.6849 9.52667 60.3782 9.44 60.0516 9.44C59.7249 9.44 59.4849 9.52667 59.3316 9.7C59.1782 9.87333 59.0949 10.15 59.0816 10.53C59.0482 11.2767 59.0282 12.06 59.0216 12.88C59.0149 13.7 59.0149 14.5067 59.0216 15.3C59.0282 16.0867 59.0482 16.81 59.0816 17.47C59.0949 17.85 59.1749 18.1267 59.3216 18.3C59.4749 18.4733 59.7182 18.56 60.0516 18.56ZM69.1214 20.17C68.3214 20.17 67.6814 20.06 67.2014 19.84C66.7281 19.62 66.3814 19.2667 66.1614 18.78C65.9414 18.2933 65.8081 17.6533 65.7614 16.86C65.7481 16.48 65.7347 16.0433 65.7214 15.55C65.7147 15.0567 65.7114 14.5467 65.7114 14.02C65.7114 13.4933 65.7147 12.98 65.7214 12.48C65.7347 11.98 65.7481 11.53 65.7614 11.13C65.8081 10.3433 65.9414 9.71 66.1614 9.23C66.3814 8.74333 66.7281 8.39 67.2014 8.17C67.6814 7.94333 68.3214 7.83 69.1214 7.83C69.9347 7.83 70.5747 7.94333 71.0414 8.17C71.5147 8.39 71.8614 8.74333 72.0814 9.23C72.3014 9.71 72.4314 10.3433 72.4714 11.13C72.4847 11.5167 72.4947 11.9567 72.5014 12.45C72.5081 12.9367 72.5114 13.4467 72.5114 13.98C72.5114 14.5067 72.5081 15.02 72.5014 15.52C72.4947 16.0133 72.4847 16.46 72.4714 16.86C72.4314 17.6467 72.3014 18.2833 72.0814 18.77C71.8614 19.2567 71.5147 19.6133 71.0414 19.84C70.5747 20.06 69.9347 20.17 69.1214 20.17ZM69.1214 18.52C69.5414 18.52 69.8414 18.43 70.0214 18.25C70.2014 18.07 70.2947 17.78 70.3014 17.38C70.3214 16.7933 70.3347 16.22 70.3414 15.66C70.3547 15.1 70.3614 14.5433 70.3614 13.99C70.3614 13.4367 70.3547 12.8833 70.3414 12.33C70.3347 11.77 70.3214 11.1967 70.3014 10.61C70.2947 10.2167 70.2014 9.93 70.0214 9.75C69.8481 9.57 69.5481 9.48 69.1214 9.48C68.7081 9.48 68.4081 9.57 68.2214 9.75C68.0347 9.93 67.9347 10.2167 67.9214 10.61C67.9081 11.1967 67.8947 11.77 67.8814 12.33C67.8747 12.89 67.8714 13.4467 67.8714 14C67.8714 14.5533 67.8747 15.11 67.8814 15.67C67.8947 16.23 67.9081 16.8 67.9214 17.38C67.9347 17.78 68.0347 18.07 68.2214 18.25C68.4081 18.43 68.7081 18.52 69.1214 18.52ZM81.5981 20.14C80.8315 20.14 80.2648 19.94 79.8981 19.54C79.5381 19.1333 79.3215 18.4767 79.2481 17.57C79.2415 17.4233 79.2348 17.2633 79.2281 17.09C79.2281 16.9167 79.2315 16.76 79.2381 16.62C79.2781 16.1133 79.3815 15.67 79.5481 15.29C79.7215 14.91 79.9881 14.57 80.3481 14.27C80.7081 13.97 81.1915 13.6833 81.7981 13.41C82.1181 13.2633 82.4381 13.13 82.7581 13.01C83.0848 12.8833 83.4148 12.7667 83.7481 12.66V10.61C83.7481 10.23 83.6748 9.94667 83.5281 9.76C83.3815 9.57333 83.1015 9.48 82.6881 9.48C82.3348 9.48 82.0781 9.56 81.9181 9.72C81.7648 9.87333 81.6781 10.1467 81.6581 10.54C81.6515 10.6667 81.6448 10.8433 81.6381 11.07C81.6381 11.2967 81.6381 11.53 81.6381 11.77C81.6448 12.0033 81.6515 12.1967 81.6581 12.35H79.5581C79.5515 12.1833 79.5448 11.94 79.5381 11.62C79.5315 11.3 79.5315 11.0167 79.5381 10.77C79.5648 10.0833 79.6848 9.52333 79.8981 9.09C80.1115 8.65667 80.4481 8.34 80.9081 8.14C81.3681 7.93333 81.9815 7.83 82.7481 7.83C83.5481 7.83 84.1748 7.94333 84.6281 8.17C85.0881 8.39 85.4148 8.74 85.6081 9.22C85.8015 9.7 85.8981 10.3267 85.8981 11.1L85.8881 20H83.7281V18.81H83.4281C83.2348 19.2567 83.0015 19.59 82.7281 19.81C82.4615 20.03 82.0848 20.14 81.5981 20.14ZM82.4481 18.56C82.7481 18.56 83.0048 18.4733 83.2181 18.3C83.4381 18.1267 83.6115 17.8867 83.7381 17.58V14.16C83.5048 14.2333 83.2715 14.32 83.0381 14.42C82.8048 14.5133 82.5681 14.64 82.3281 14.8C81.9615 15.02 81.7148 15.2833 81.5881 15.59C81.4681 15.89 81.3981 16.2333 81.3781 16.62C81.3715 16.7467 81.3681 16.8767 81.3681 17.01C81.3681 17.1433 81.3715 17.2767 81.3781 17.41C81.4115 17.7833 81.5181 18.07 81.6981 18.27C81.8848 18.4633 82.1348 18.56 82.4481 18.56ZM88.2608 20V8H90.4208V9.18H90.8108C91.0508 8.74 91.3108 8.40667 91.5908 8.18C91.8774 7.94667 92.2941 7.83 92.8408 7.83C93.3808 7.83 93.8241 7.94667 94.1708 8.18C94.5174 8.41333 94.7674 8.79333 94.9208 9.32H95.2908C95.5308 8.87333 95.8141 8.51333 96.1408 8.24C96.4674 7.96667 96.9074 7.83 97.4608 7.83C98.1874 7.83 98.7441 8.05333 99.1308 8.5C99.5241 8.94 99.7208 9.67667 99.7208 10.71V20H97.5608V10.53C97.5608 10.15 97.4808 9.87333 97.3208 9.7C97.1608 9.52667 96.9141 9.44 96.5808 9.44C96.2741 9.44 95.9841 9.54 95.7108 9.74C95.4441 9.93333 95.2441 10.1933 95.1108 10.52V20H92.9508V10.53C92.9441 10.15 92.8608 9.87333 92.7008 9.7C92.5408 9.52667 92.2941 9.44 91.9608 9.44C91.6408 9.44 91.3341 9.52667 91.0408 9.7C90.7541 9.87333 90.5474 10.1333 90.4208 10.48V20H88.2608ZM106.531 20.17C105.984 20.17 105.571 20.0567 105.291 19.83C105.011 19.5967 104.751 19.26 104.511 18.82H104.241V20H102.081V4H104.241V9.18H104.641C104.881 8.74 105.141 8.40667 105.421 8.18C105.708 7.94667 106.121 7.83 106.661 7.83C107.394 7.83 107.941 8.05333 108.301 8.5C108.668 8.94 108.871 9.67667 108.911 10.71C108.924 11.1833 108.934 11.7067 108.941 12.28C108.954 12.8533 108.961 13.44 108.961 14.04C108.961 14.64 108.954 15.2233 108.941 15.79C108.934 16.35 108.924 16.85 108.911 17.29C108.871 18.3167 108.644 19.0533 108.231 19.5C107.824 19.9467 107.258 20.17 106.531 20.17ZM105.781 18.56C106.114 18.56 106.354 18.4733 106.501 18.3C106.654 18.1267 106.738 17.85 106.751 17.47C106.778 16.9767 106.794 16.4467 106.801 15.88C106.814 15.3067 106.821 14.7167 106.821 14.11C106.821 13.4967 106.814 12.8867 106.801 12.28C106.794 11.6733 106.778 11.09 106.751 10.53C106.738 10.15 106.654 9.87333 106.501 9.7C106.354 9.52667 106.114 9.44 105.781 9.44C105.461 9.44 105.154 9.52667 104.861 9.7C104.574 9.87333 104.368 10.1333 104.241 10.48V17.52C104.368 17.86 104.574 18.12 104.861 18.3C105.154 18.4733 105.461 18.56 105.781 18.56ZM111.004 5.93V4H113.554V5.93H111.004ZM111.194 20V8H113.354V20H111.194ZM118.946 20.17C117.813 20.17 116.99 19.9367 116.476 19.47C115.97 19.0033 115.686 18.2367 115.626 17.17C115.613 16.79 115.603 16.3267 115.596 15.78C115.59 15.2267 115.586 14.65 115.586 14.05C115.586 13.4433 115.59 12.86 115.596 12.3C115.603 11.74 115.613 11.26 115.626 10.86C115.7 9.77333 115.99 8.99667 116.496 8.53C117.003 8.06333 117.813 7.83 118.926 7.83C120.02 7.83 120.813 8.06 121.306 8.52C121.806 8.97333 122.083 9.72333 122.136 10.77C122.143 10.95 122.146 11.2333 122.146 11.62C122.153 12 122.153 12.4367 122.146 12.93C122.146 13.4167 122.136 13.9033 122.116 14.39H117.756C117.756 14.8767 117.76 15.37 117.766 15.87C117.78 16.3633 117.79 16.87 117.796 17.39C117.81 17.81 117.903 18.1033 118.076 18.27C118.256 18.4367 118.543 18.52 118.936 18.52C119.31 18.52 119.576 18.4367 119.736 18.27C119.896 18.1033 119.986 17.81 120.006 17.39C120.02 17.19 120.026 16.9367 120.026 16.63C120.026 16.3233 120.02 15.9833 120.006 15.61H122.116C122.13 15.79 122.14 16.0367 122.146 16.35C122.153 16.6567 122.15 16.93 122.136 17.17C122.083 18.2367 121.813 19.0033 121.326 19.47C120.846 19.9367 120.053 20.17 118.946 20.17ZM117.756 12.84H120.026C120.033 12.5133 120.036 12.1933 120.036 11.88C120.036 11.5667 120.033 11.2933 120.026 11.06C120.02 10.82 120.013 10.6467 120.006 10.54C119.986 10.16 119.893 9.89 119.726 9.73C119.566 9.56333 119.3 9.48 118.926 9.48C118.533 9.48 118.25 9.56333 118.076 9.73C117.903 9.89 117.81 10.16 117.796 10.54C117.79 10.9467 117.783 11.34 117.776 11.72C117.77 12.1 117.763 12.4733 117.756 12.84ZM124.284 20V8H126.444V9.18H126.844C127.078 8.74667 127.338 8.41333 127.624 8.18C127.918 7.94667 128.331 7.83 128.864 7.83C129.598 7.83 130.158 8.05333 130.544 8.5C130.938 8.94 131.138 9.67667 131.144 10.71V20H128.984V10.53C128.978 10.15 128.891 9.87333 128.724 9.7C128.564 9.52667 128.318 9.44 127.984 9.44C127.678 9.44 127.374 9.53333 127.074 9.72C126.781 9.9 126.571 10.1533 126.444 10.48V20H124.284ZM137.285 20.17C136.058 20.17 135.188 19.9367 134.675 19.47C134.168 19.0033 133.915 18.2367 133.915 17.17V9.66H132.935V8H133.935V4.6H136.105V8H138.015V9.66H136.075V17.41C136.075 17.83 136.148 18.1233 136.295 18.29C136.448 18.45 136.781 18.53 137.295 18.53C137.468 18.53 137.621 18.5267 137.755 18.52C137.888 18.5133 138.041 18.5033 138.215 18.49V20.07C138.075 20.1033 137.925 20.1267 137.765 20.14C137.611 20.16 137.451 20.17 137.285 20.17ZM143.064 20.17C141.93 20.17 141.107 19.9367 140.594 19.47C140.087 19.0033 139.804 18.2367 139.744 17.17C139.73 16.79 139.72 16.3267 139.714 15.78C139.707 15.2267 139.704 14.65 139.704 14.05C139.704 13.4433 139.707 12.86 139.714 12.3C139.72 11.74 139.73 11.26 139.744 10.86C139.817 9.77333 140.107 8.99667 140.614 8.53C141.12 8.06333 141.93 7.83 143.044 7.83C144.137 7.83 144.93 8.06 145.424 8.52C145.924 8.97333 146.2 9.72333 146.254 10.77C146.26 10.95 146.264 11.2333 146.264 11.62C146.27 12 146.27 12.4367 146.264 12.93C146.264 13.4167 146.254 13.9033 146.234 14.39H141.874C141.874 14.8767 141.877 15.37 141.884 15.87C141.897 16.3633 141.907 16.87 141.914 17.39C141.927 17.81 142.02 18.1033 142.194 18.27C142.374 18.4367 142.66 18.52 143.054 18.52C143.427 18.52 143.694 18.4367 143.854 18.27C144.014 18.1033 144.104 17.81 144.124 17.39C144.137 17.19 144.144 16.9367 144.144 16.63C144.144 16.3233 144.137 15.9833 144.124 15.61H146.234C146.247 15.79 146.257 16.0367 146.264 16.35C146.27 16.6567 146.267 16.93 146.254 17.17C146.2 18.2367 145.93 19.0033 145.444 19.47C144.964 19.9367 144.17 20.17 143.064 20.17ZM141.874 12.84H144.144C144.15 12.5133 144.154 12.1933 144.154 11.88C144.154 11.5667 144.15 11.2933 144.144 11.06C144.137 10.82 144.13 10.6467 144.124 10.54C144.104 10.16 144.01 9.89 143.844 9.73C143.684 9.56333 143.417 9.48 143.044 9.48C142.65 9.48 142.367 9.56333 142.194 9.73C142.02 9.89 141.927 10.16 141.914 10.54C141.907 10.9467 141.9 11.34 141.894 11.72C141.887 12.1 141.88 12.4733 141.874 12.84Z" fill="#FEFEFE"/>
<path d="M14 147.312H155" stroke="#FEFEFE" stroke-width="3" stroke-linecap="round"/>
<path d="M133.474 148.649C133.169 154.063 129.508 165.106 117.305 165.964C110.594 166.436 99.1232 162.378 99.0012 148.649C99.1537 141.958 96.042 128.27 82.3751 127.044C77.2398 126.585 66.3286 129.496 63.766 144.819C62.5789 151.917 59.8002 165.964 45.157 165.964C40.2759 165.964 30.1172 162.501 28.5309 148.649" stroke="#9867F8" stroke-width="7" stroke-linecap="round"/>
<path d="M16.1 118.17C14.9067 118.17 14.0533 117.913 13.54 117.4C13.0267 116.88 12.7467 116.027 12.7 114.84C12.6933 114.527 12.6867 114.223 12.68 113.93C12.68 113.63 12.6833 113.33 12.69 113.03C12.7033 112.73 12.7233 112.423 12.75 112.11H14.79C14.7633 112.643 14.7467 113.177 14.74 113.71C14.74 114.243 14.7567 114.747 14.79 115.22C14.8167 115.613 14.9333 115.907 15.14 116.1C15.3467 116.287 15.6633 116.38 16.09 116.38C16.51 116.38 16.8133 116.287 17 116.1C17.1867 115.907 17.3 115.613 17.34 115.22C17.36 114.92 17.3733 114.64 17.38 114.38C17.3867 114.12 17.3867 113.857 17.38 113.59C17.3733 113.323 17.36 113.03 17.34 112.71C17.3133 112.317 17.2333 111.98 17.1 111.7C16.9667 111.42 16.7233 111.233 16.37 111.14L15.03 110.8C14.43 110.647 13.96 110.423 13.62 110.13C13.28 109.83 13.0367 109.45 12.89 108.99C12.7433 108.53 12.66 107.98 12.64 107.34C12.6333 106.98 12.63 106.613 12.63 106.24C12.6367 105.867 12.6433 105.497 12.65 105.13C12.6767 104.343 12.8033 103.71 13.03 103.23C13.2633 102.743 13.6267 102.39 14.12 102.17C14.62 101.943 15.2767 101.83 16.09 101.83C17.2433 101.83 18.0767 102.087 18.59 102.6C19.11 103.113 19.3933 103.96 19.44 105.14C19.4533 105.467 19.4567 105.87 19.45 106.35C19.4433 106.823 19.43 107.297 19.41 107.77H17.33C17.35 107.27 17.36 106.77 17.36 106.27C17.3667 105.763 17.36 105.26 17.34 104.76C17.3333 104.373 17.2233 104.087 17.01 103.9C16.7967 103.707 16.4867 103.61 16.08 103.61C15.6533 103.61 15.3433 103.707 15.15 103.9C14.9567 104.087 14.8433 104.373 14.81 104.76C14.7767 105.187 14.76 105.617 14.76 106.05C14.7667 106.483 14.7833 106.913 14.81 107.34C14.8367 107.767 14.92 108.11 15.06 108.37C15.2 108.63 15.4533 108.807 15.82 108.9L17.03 109.19C17.6633 109.337 18.1567 109.567 18.51 109.88C18.8633 110.187 19.1133 110.577 19.26 111.05C19.4067 111.517 19.49 112.07 19.51 112.71C19.5233 112.99 19.53 113.243 19.53 113.47C19.53 113.697 19.5267 113.92 19.52 114.14C19.5133 114.353 19.5067 114.587 19.5 114.84C19.4533 116.027 19.17 116.88 18.65 117.4C18.1367 117.913 17.2867 118.17 16.1 118.17ZM24.8245 118.17C24.0245 118.17 23.3845 118.06 22.9045 117.84C22.4312 117.62 22.0845 117.267 21.8645 116.78C21.6445 116.293 21.5112 115.653 21.4645 114.86C21.4512 114.48 21.4379 114.043 21.4245 113.55C21.4179 113.057 21.4145 112.547 21.4145 112.02C21.4145 111.493 21.4179 110.98 21.4245 110.48C21.4379 109.98 21.4512 109.53 21.4645 109.13C21.5112 108.343 21.6445 107.71 21.8645 107.23C22.0845 106.743 22.4312 106.39 22.9045 106.17C23.3845 105.943 24.0245 105.83 24.8245 105.83C25.6379 105.83 26.2779 105.943 26.7445 106.17C27.2179 106.39 27.5645 106.743 27.7845 107.23C28.0045 107.71 28.1345 108.343 28.1745 109.13C28.1879 109.517 28.1979 109.957 28.2045 110.45C28.2112 110.937 28.2145 111.447 28.2145 111.98C28.2145 112.507 28.2112 113.02 28.2045 113.52C28.1979 114.013 28.1879 114.46 28.1745 114.86C28.1345 115.647 28.0045 116.283 27.7845 116.77C27.5645 117.257 27.2179 117.613 26.7445 117.84C26.2779 118.06 25.6379 118.17 24.8245 118.17ZM24.8245 116.52C25.2445 116.52 25.5445 116.43 25.7245 116.25C25.9045 116.07 25.9979 115.78 26.0045 115.38C26.0245 114.793 26.0379 114.22 26.0445 113.66C26.0579 113.1 26.0645 112.543 26.0645 111.99C26.0645 111.437 26.0579 110.883 26.0445 110.33C26.0379 109.77 26.0245 109.197 26.0045 108.61C25.9979 108.217 25.9045 107.93 25.7245 107.75C25.5512 107.57 25.2512 107.48 24.8245 107.48C24.4112 107.48 24.1112 107.57 23.9245 107.75C23.7379 107.93 23.6379 108.217 23.6245 108.61C23.6112 109.197 23.5979 109.77 23.5845 110.33C23.5779 110.89 23.5745 111.447 23.5745 112C23.5745 112.553 23.5779 113.11 23.5845 113.67C23.5979 114.23 23.6112 114.8 23.6245 115.38C23.6379 115.78 23.7379 116.07 23.9245 116.25C24.1112 116.43 24.4112 116.52 24.8245 116.52ZM30.4639 118V106H32.6239V107.18H33.0139C33.2539 106.74 33.5139 106.407 33.7939 106.18C34.0806 105.947 34.4972 105.83 35.0439 105.83C35.5839 105.83 36.0272 105.947 36.3739 106.18C36.7206 106.413 36.9706 106.793 37.1239 107.32H37.4939C37.7339 106.873 38.0172 106.513 38.3439 106.24C38.6706 105.967 39.1106 105.83 39.6639 105.83C40.3906 105.83 40.9472 106.053 41.3339 106.5C41.7272 106.94 41.9239 107.677 41.9239 108.71V118H39.7639V108.53C39.7639 108.15 39.6839 107.873 39.5239 107.7C39.3639 107.527 39.1172 107.44 38.7839 107.44C38.4772 107.44 38.1872 107.54 37.9139 107.74C37.6472 107.933 37.4472 108.193 37.3139 108.52V118H35.1539V108.53C35.1472 108.15 35.0639 107.873 34.9039 107.7C34.7439 107.527 34.4972 107.44 34.1639 107.44C33.8439 107.44 33.5372 107.527 33.2439 107.7C32.9572 107.873 32.7506 108.133 32.6239 108.48V118H30.4639ZM51.2116 118.17C50.4782 118.17 49.9216 117.947 49.5416 117.5C49.1682 117.053 48.9582 116.317 48.9116 115.29C48.8982 114.85 48.8882 114.35 48.8816 113.79C48.8749 113.223 48.8716 112.64 48.8716 112.04C48.8716 111.44 48.8749 110.853 48.8816 110.28C48.8882 109.707 48.8982 109.183 48.9116 108.71C48.9582 107.677 49.1749 106.94 49.5616 106.5C49.9549 106.053 50.5149 105.83 51.2416 105.83C51.7882 105.83 52.2016 105.947 52.4816 106.18C52.7616 106.407 53.0216 106.74 53.2616 107.18H53.5916V102H55.7516V118H53.5916V116.82H53.2516C53.0116 117.253 52.7482 117.587 52.4616 117.82C52.1749 118.053 51.7582 118.17 51.2116 118.17ZM52.0516 116.56C52.3782 116.56 52.6849 116.473 52.9716 116.3C53.2582 116.12 53.4649 115.86 53.5916 115.52V108.48C53.4649 108.133 53.2582 107.873 52.9716 107.7C52.6849 107.527 52.3782 107.44 52.0516 107.44C51.7249 107.44 51.4849 107.527 51.3316 107.7C51.1782 107.873 51.0949 108.15 51.0816 108.53C51.0482 109.277 51.0282 110.06 51.0216 110.88C51.0149 111.7 51.0149 112.507 51.0216 113.3C51.0282 114.087 51.0482 114.81 51.0816 115.47C51.0949 115.85 51.1749 116.127 51.3216 116.3C51.4749 116.473 51.7182 116.56 52.0516 116.56ZM61.0714 118.17C59.9381 118.17 59.1147 117.937 58.6014 117.47C58.0947 117.003 57.8114 116.237 57.7514 115.17C57.7381 114.79 57.7281 114.327 57.7214 113.78C57.7147 113.227 57.7114 112.65 57.7114 112.05C57.7114 111.443 57.7147 110.86 57.7214 110.3C57.7281 109.74 57.7381 109.26 57.7514 108.86C57.8247 107.773 58.1147 106.997 58.6214 106.53C59.1281 106.063 59.9381 105.83 61.0514 105.83C62.1447 105.83 62.9381 106.06 63.4314 106.52C63.9314 106.973 64.2081 107.723 64.2614 108.77C64.2681 108.95 64.2714 109.233 64.2714 109.62C64.2781 110 64.2781 110.437 64.2714 110.93C64.2714 111.417 64.2614 111.903 64.2414 112.39H59.8814C59.8814 112.877 59.8847 113.37 59.8914 113.87C59.9047 114.363 59.9147 114.87 59.9214 115.39C59.9347 115.81 60.0281 116.103 60.2014 116.27C60.3814 116.437 60.6681 116.52 61.0614 116.52C61.4347 116.52 61.7014 116.437 61.8614 116.27C62.0214 116.103 62.1114 115.81 62.1314 115.39C62.1447 115.19 62.1514 114.937 62.1514 114.63C62.1514 114.323 62.1447 113.983 62.1314 113.61H64.2414C64.2547 113.79 64.2647 114.037 64.2714 114.35C64.2781 114.657 64.2747 114.93 64.2614 115.17C64.2081 116.237 63.9381 117.003 63.4514 117.47C62.9714 117.937 62.1781 118.17 61.0714 118.17ZM59.8814 110.84H62.1514C62.1581 110.513 62.1614 110.193 62.1614 109.88C62.1614 109.567 62.1581 109.293 62.1514 109.06C62.1447 108.82 62.1381 108.647 62.1314 108.54C62.1114 108.16 62.0181 107.89 61.8514 107.73C61.6914 107.563 61.4247 107.48 61.0514 107.48C60.6581 107.48 60.3747 107.563 60.2014 107.73C60.0281 107.89 59.9347 108.16 59.9214 108.54C59.9147 108.947 59.9081 109.34 59.9014 109.72C59.8947 110.1 59.8881 110.473 59.8814 110.84ZM71.1559 118V107.66H70.0159V106H71.1559V104.8C71.1493 103.733 71.4126 102.97 71.9459 102.51C72.4793 102.043 73.3093 101.81 74.4359 101.81C74.6426 101.81 74.8626 101.823 75.0959 101.85C75.3359 101.877 75.5593 101.91 75.7659 101.95V103.55C75.5593 103.537 75.3426 103.527 75.1159 103.52C74.8959 103.513 74.6726 103.51 74.4459 103.51C74.0593 103.51 73.7726 103.6 73.5859 103.78C73.3993 103.96 73.3093 104.247 73.3159 104.64V106H75.3559V107.66H73.3159V118H71.1559ZM78.8638 118.14C78.0971 118.14 77.5304 117.94 77.1637 117.54C76.8038 117.133 76.5871 116.477 76.5138 115.57C76.5071 115.423 76.5004 115.263 76.4938 115.09C76.4938 114.917 76.4971 114.76 76.5037 114.62C76.5438 114.113 76.6471 113.67 76.8138 113.29C76.9871 112.91 77.2538 112.57 77.6138 112.27C77.9738 111.97 78.4571 111.683 79.0638 111.41C79.3838 111.263 79.7038 111.13 80.0238 111.01C80.3504 110.883 80.6804 110.767 81.0138 110.66V108.61C81.0138 108.23 80.9404 107.947 80.7938 107.76C80.6471 107.573 80.3671 107.48 79.9538 107.48C79.6004 107.48 79.3438 107.56 79.1838 107.72C79.0304 107.873 78.9438 108.147 78.9238 108.54C78.9171 108.667 78.9104 108.843 78.9038 109.07C78.9038 109.297 78.9038 109.53 78.9038 109.77C78.9104 110.003 78.9171 110.197 78.9238 110.35H76.8238C76.8171 110.183 76.8104 109.94 76.8038 109.62C76.7971 109.3 76.7971 109.017 76.8038 108.77C76.8304 108.083 76.9504 107.523 77.1637 107.09C77.3771 106.657 77.7138 106.34 78.1738 106.14C78.6338 105.933 79.2471 105.83 80.0138 105.83C80.8138 105.83 81.4404 105.943 81.8938 106.17C82.3538 106.39 82.6804 106.74 82.8738 107.22C83.0671 107.7 83.1638 108.327 83.1638 109.1L83.1538 118H80.9938V116.81H80.6938C80.5004 117.257 80.2671 117.59 79.9938 117.81C79.7271 118.03 79.3504 118.14 78.8638 118.14ZM79.7138 116.56C80.0138 116.56 80.2704 116.473 80.4838 116.3C80.7038 116.127 80.8771 115.887 81.0038 115.58V112.16C80.7704 112.233 80.5371 112.32 80.3038 112.42C80.0704 112.513 79.8338 112.64 79.5938 112.8C79.2271 113.02 78.9804 113.283 78.8538 113.59C78.7338 113.89 78.6638 114.233 78.6438 114.62C78.6371 114.747 78.6338 114.877 78.6338 115.01C78.6338 115.143 78.6371 115.277 78.6438 115.41C78.6771 115.783 78.7838 116.07 78.9638 116.27C79.1504 116.463 79.4004 116.56 79.7138 116.56ZM88.2964 118.17C87.2231 118.17 86.4564 117.937 85.9964 117.47C85.5431 117.003 85.2964 116.237 85.2564 115.17C85.2497 114.93 85.2464 114.657 85.2464 114.35C85.2531 114.043 85.2631 113.797 85.2764 113.61H87.1764C87.1697 113.983 87.1664 114.323 87.1664 114.63C87.1664 114.93 87.1697 115.183 87.1764 115.39C87.1897 115.81 87.2864 116.103 87.4664 116.27C87.6464 116.437 87.9231 116.52 88.2964 116.52C88.7297 116.52 89.0397 116.437 89.2264 116.27C89.4197 116.103 89.5197 115.81 89.5264 115.39C89.5264 115.21 89.5264 115.077 89.5264 114.99C89.5264 114.897 89.5264 114.81 89.5264 114.73C89.5331 114.643 89.5331 114.517 89.5264 114.35C89.5264 114.003 89.4731 113.73 89.3664 113.53C89.2597 113.323 89.0631 113.177 88.7764 113.09L87.5964 112.73C87.0697 112.563 86.6297 112.36 86.2764 112.12C85.9231 111.873 85.6564 111.557 85.4764 111.17C85.3031 110.783 85.2131 110.297 85.2064 109.71C85.2064 109.563 85.2064 109.423 85.2064 109.29C85.2064 109.157 85.2097 109.017 85.2164 108.87C85.2231 107.783 85.4597 107.007 85.9264 106.54C86.3997 106.067 87.2264 105.83 88.4064 105.83C89.4931 105.83 90.2564 106.06 90.6964 106.52C91.1431 106.973 91.3897 107.727 91.4364 108.78C91.4431 109.02 91.4431 109.297 91.4364 109.61C91.4364 109.917 91.4297 110.163 91.4164 110.35H89.4464C89.4531 110.183 89.4564 109.983 89.4564 109.75C89.4631 109.517 89.4631 109.29 89.4564 109.07C89.4564 108.85 89.4531 108.673 89.4464 108.54C89.4331 108.147 89.3497 107.873 89.1964 107.72C89.0497 107.56 88.7864 107.48 88.4064 107.48C88.0064 107.48 87.7297 107.56 87.5764 107.72C87.4231 107.873 87.3397 108.147 87.3264 108.54C87.3197 108.733 87.3131 108.89 87.3064 109.01C87.2997 109.123 87.2997 109.3 87.3064 109.54C87.3064 109.913 87.3531 110.22 87.4464 110.46C87.5397 110.7 87.7597 110.873 88.1064 110.98L89.1664 111.27C89.9597 111.47 90.5531 111.797 90.9464 112.25C91.3397 112.697 91.5364 113.36 91.5364 114.24C91.5364 114.393 91.5331 114.557 91.5264 114.73C91.5264 114.903 91.5231 115.07 91.5164 115.23C91.5097 116.277 91.2597 117.03 90.7664 117.49C90.2797 117.943 89.4564 118.17 88.2964 118.17ZM96.7941 118.17C95.6607 118.17 94.8374 117.937 94.3241 117.47C93.8174 117.003 93.5341 116.237 93.4741 115.17C93.4607 114.79 93.4507 114.327 93.4441 113.78C93.4374 113.227 93.4341 112.65 93.4341 112.05C93.4341 111.443 93.4374 110.86 93.4441 110.3C93.4507 109.74 93.4607 109.26 93.4741 108.86C93.5474 107.773 93.8374 106.997 94.3441 106.53C94.8507 106.063 95.6607 105.83 96.7741 105.83C97.8674 105.83 98.6607 106.06 99.1541 106.52C99.6541 106.973 99.9307 107.723 99.9841 108.77C99.9907 108.95 99.9941 109.233 99.9941 109.62C100.001 110 100.001 110.437 99.9941 110.93C99.9941 111.417 99.9841 111.903 99.9641 112.39H95.6041C95.6041 112.877 95.6074 113.37 95.6141 113.87C95.6274 114.363 95.6374 114.87 95.6441 115.39C95.6574 115.81 95.7507 116.103 95.9241 116.27C96.1041 116.437 96.3907 116.52 96.7841 116.52C97.1574 116.52 97.4241 116.437 97.5841 116.27C97.7441 116.103 97.8341 115.81 97.8541 115.39C97.8674 115.19 97.8741 114.937 97.8741 114.63C97.8741 114.323 97.8674 113.983 97.8541 113.61H99.9641C99.9774 113.79 99.9874 114.037 99.9941 114.35C100.001 114.657 99.9974 114.93 99.9841 115.17C99.9307 116.237 99.6607 117.003 99.1741 117.47C98.6941 117.937 97.9007 118.17 96.7941 118.17ZM95.6041 110.84H97.8741C97.8807 110.513 97.8841 110.193 97.8841 109.88C97.8841 109.567 97.8807 109.293 97.8741 109.06C97.8674 108.82 97.8607 108.647 97.8541 108.54C97.8341 108.16 97.7407 107.89 97.5741 107.73C97.4141 107.563 97.1474 107.48 96.7741 107.48C96.3807 107.48 96.0974 107.563 95.9241 107.73C95.7507 107.89 95.6574 108.16 95.6441 108.54C95.6374 108.947 95.6307 109.34 95.6241 109.72C95.6174 110.1 95.6107 110.473 95.6041 110.84ZM106.719 103.93V102H109.269V103.93H106.719ZM106.909 118V106H109.069V118H106.909ZM111.491 118V106H113.651V107.18H114.051C114.285 106.747 114.545 106.413 114.831 106.18C115.125 105.947 115.538 105.83 116.071 105.83C116.805 105.83 117.365 106.053 117.751 106.5C118.145 106.94 118.345 107.677 118.351 108.71V118H116.191V108.53C116.185 108.15 116.098 107.873 115.931 107.7C115.771 107.527 115.525 107.44 115.191 107.44C114.885 107.44 114.581 107.533 114.281 107.72C113.988 107.9 113.778 108.153 113.651 108.48V118H111.491ZM121.672 118L120.042 106H122.242L122.902 112.04L123.192 116.38H123.812L124.112 112.04L124.802 106H127.002L125.332 118H121.672ZM131.911 118.17C130.778 118.17 129.955 117.937 129.441 117.47C128.935 117.003 128.651 116.237 128.591 115.17C128.578 114.79 128.568 114.327 128.561 113.78C128.555 113.227 128.551 112.65 128.551 112.05C128.551 111.443 128.555 110.86 128.561 110.3C128.568 109.74 128.578 109.26 128.591 108.86C128.665 107.773 128.955 106.997 129.461 106.53C129.968 106.063 130.778 105.83 131.891 105.83C132.985 105.83 133.778 106.06 134.271 106.52C134.771 106.973 135.048 107.723 135.101 108.77C135.108 108.95 135.111 109.233 135.111 109.62C135.118 110 135.118 110.437 135.111 110.93C135.111 111.417 135.101 111.903 135.081 112.39H130.721C130.721 112.877 130.725 113.37 130.731 113.87C130.745 114.363 130.755 114.87 130.761 115.39C130.775 115.81 130.868 116.103 131.041 116.27C131.221 116.437 131.508 116.52 131.901 116.52C132.275 116.52 132.541 116.437 132.701 116.27C132.861 116.103 132.951 115.81 132.971 115.39C132.985 115.19 132.991 114.937 132.991 114.63C132.991 114.323 132.985 113.983 132.971 113.61H135.081C135.095 113.79 135.105 114.037 135.111 114.35C135.118 114.657 135.115 114.93 135.101 115.17C135.048 116.237 134.778 117.003 134.291 117.47C133.811 117.937 133.018 118.17 131.911 118.17ZM130.721 110.84H132.991C132.998 110.513 133.001 110.193 133.001 109.88C133.001 109.567 132.998 109.293 132.991 109.06C132.985 108.82 132.978 108.647 132.971 108.54C132.951 108.16 132.858 107.89 132.691 107.73C132.531 107.563 132.265 107.48 131.891 107.48C131.498 107.48 131.215 107.563 131.041 107.73C130.868 107.89 130.775 108.16 130.761 108.54C130.755 108.947 130.748 109.34 130.741 109.72C130.735 110.1 130.728 110.473 130.721 110.84ZM137.249 118V106H139.409V107.32H139.809C139.896 106.807 140.069 106.45 140.329 106.25C140.596 106.05 140.946 105.95 141.379 105.95C141.519 105.95 141.656 105.953 141.789 105.96C141.929 105.967 142.039 105.973 142.119 105.98V107.66H141.399C140.739 107.66 140.262 107.77 139.969 107.99C139.682 108.21 139.496 108.537 139.409 108.97V118H137.249ZM146.496 118.17C145.422 118.17 144.656 117.937 144.196 117.47C143.742 117.003 143.496 116.237 143.456 115.17C143.449 114.93 143.446 114.657 143.446 114.35C143.452 114.043 143.462 113.797 143.476 113.61H145.376C145.369 113.983 145.366 114.323 145.366 114.63C145.366 114.93 145.369 115.183 145.376 115.39C145.389 115.81 145.486 116.103 145.666 116.27C145.846 116.437 146.122 116.52 146.496 116.52C146.929 116.52 147.239 116.437 147.426 116.27C147.619 116.103 147.719 115.81 147.726 115.39C147.726 115.21 147.726 115.077 147.726 114.99C147.726 114.897 147.726 114.81 147.726 114.73C147.732 114.643 147.732 114.517 147.726 114.35C147.726 114.003 147.672 113.73 147.566 113.53C147.459 113.323 147.262 113.177 146.976 113.09L145.796 112.73C145.269 112.563 144.829 112.36 144.476 112.12C144.122 111.873 143.856 111.557 143.676 111.17C143.502 110.783 143.412 110.297 143.406 109.71C143.406 109.563 143.406 109.423 143.406 109.29C143.406 109.157 143.409 109.017 143.416 108.87C143.422 107.783 143.659 107.007 144.126 106.54C144.599 106.067 145.426 105.83 146.606 105.83C147.692 105.83 148.456 106.06 148.896 106.52C149.342 106.973 149.589 107.727 149.636 108.78C149.642 109.02 149.642 109.297 149.636 109.61C149.636 109.917 149.629 110.163 149.616 110.35H147.646C147.652 110.183 147.656 109.983 147.656 109.75C147.662 109.517 147.662 109.29 147.656 109.07C147.656 108.85 147.652 108.673 147.646 108.54C147.632 108.147 147.549 107.873 147.396 107.72C147.249 107.56 146.986 107.48 146.606 107.48C146.206 107.48 145.929 107.56 145.776 107.72C145.622 107.873 145.539 108.147 145.526 108.54C145.519 108.733 145.512 108.89 145.506 109.01C145.499 109.123 145.499 109.3 145.506 109.54C145.506 109.913 145.552 110.22 145.646 110.46C145.739 110.7 145.959 110.873 146.306 110.98L147.366 111.27C148.159 111.47 148.752 111.797 149.146 112.25C149.539 112.697 149.736 113.36 149.736 114.24C149.736 114.393 149.732 114.557 149.726 114.73C149.726 114.903 149.722 115.07 149.716 115.23C149.709 116.277 149.459 117.03 148.966 117.49C148.479 117.943 147.656 118.17 146.496 118.17ZM153.883 118.14C153.117 118.14 152.55 117.94 152.183 117.54C151.823 117.133 151.607 116.477 151.533 115.57C151.527 115.423 151.52 115.263 151.513 115.09C151.513 114.917 151.517 114.76 151.523 114.62C151.563 114.113 151.667 113.67 151.833 113.29C152.007 112.91 152.273 112.57 152.633 112.27C152.993 111.97 153.477 111.683 154.083 111.41C154.403 111.263 154.723 111.13 155.043 111.01C155.37 110.883 155.7 110.767 156.033 110.66V108.61C156.033 108.23 155.96 107.947 155.813 107.76C155.667 107.573 155.387 107.48 154.973 107.48C154.62 107.48 154.363 107.56 154.203 107.72C154.05 107.873 153.963 108.147 153.943 108.54C153.937 108.667 153.93 108.843 153.923 109.07C153.923 109.297 153.923 109.53 153.923 109.77C153.93 110.003 153.937 110.197 153.943 110.35H151.843C151.837 110.183 151.83 109.94 151.823 109.62C151.817 109.3 151.817 109.017 151.823 108.77C151.85 108.083 151.97 107.523 152.183 107.09C152.397 106.657 152.733 106.34 153.193 106.14C153.653 105.933 154.267 105.83 155.033 105.83C155.833 105.83 156.46 105.943 156.913 106.17C157.373 106.39 157.7 106.74 157.893 107.22C158.087 107.7 158.183 108.327 158.183 109.1L158.173 118H156.013V116.81H155.713C155.52 117.257 155.287 117.59 155.013 117.81C154.747 118.03 154.37 118.14 153.883 118.14ZM154.733 116.56C155.033 116.56 155.29 116.473 155.503 116.3C155.723 116.127 155.897 115.887 156.023 115.58V112.16C155.79 112.233 155.557 112.32 155.323 112.42C155.09 112.513 154.853 112.64 154.613 112.8C154.247 113.02 154 113.283 153.873 113.59C153.753 113.89 153.683 114.233 153.663 114.62C153.657 114.747 153.653 114.877 153.653 115.01C153.653 115.143 153.657 115.277 153.663 115.41C153.697 115.783 153.803 116.07 153.983 116.27C154.17 116.463 154.42 116.56 154.733 116.56Z" fill="#FEFEFE"/>
<path d="M14 263.02H155" stroke="#FEFEFE" stroke-width="3" stroke-linecap="round"/>
<path d="M28.5303 260.756C28.8353 255.694 32.4961 245.369 44.6988 244.566C51.4102 244.125 62.8807 247.919 63.0027 260.756C62.8502 267.013 65.9619 279.812 79.6289 280.958C84.7641 281.388 95.6753 278.666 98.2379 264.338C99.425 257.701 102.204 244.566 116.847 244.566C121.728 244.566 131.887 247.804 133.473 260.756" stroke="#0CAE93" stroke-width="7" stroke-linecap="round"/>
<path d="M133.474 262.244C133.169 267.306 129.508 277.631 117.305 278.434C110.594 278.875 99.1232 275.081 99.0012 262.244C99.1537 255.987 96.042 243.188 82.3751 242.042C77.2398 241.612 66.3286 244.334 63.766 258.662C62.5789 265.299 59.8002 278.434 45.157 278.434C40.2759 278.434 30.1172 275.196 28.5309 262.244" stroke="#9867F8" stroke-width="7" stroke-linecap="round"/>
<path d="M4.25 228.17C3.03667 228.17 2.17 227.913 1.65 227.4C1.13667 226.887 0.87 226.037 0.85 224.85C0.836667 224.103 0.826667 223.32 0.82 222.5C0.813333 221.68 0.81 220.847 0.81 220C0.81 219.153 0.813333 218.32 0.82 217.5C0.826667 216.673 0.836667 215.883 0.85 215.13C0.863333 214.09 1.13667 213.283 1.67 212.71C2.20333 212.13 3.06 211.84 4.24 211.84C5.41333 211.84 6.26333 212.097 6.79 212.61C7.31667 213.117 7.6 213.963 7.64 215.15C7.64667 215.383 7.65 215.663 7.65 215.99C7.65 216.31 7.64667 216.63 7.64 216.95C7.63333 217.263 7.62667 217.54 7.62 217.78H5.46C5.46667 217.487 5.47 217.163 5.47 216.81C5.47667 216.457 5.48 216.103 5.48 215.75C5.48 215.39 5.47667 215.063 5.47 214.77C5.46333 214.377 5.35667 214.087 5.15 213.9C4.95 213.713 4.64667 213.62 4.24 213.62C3.83333 213.62 3.53 213.713 3.33 213.9C3.13 214.087 3.02333 214.377 3.01 214.77C2.98333 215.617 2.96333 216.48 2.95 217.36C2.94333 218.233 2.94 219.113 2.94 220C2.94 220.887 2.94333 221.77 2.95 222.65C2.96333 223.53 2.98333 224.39 3.01 225.23C3.02333 225.623 3.13 225.917 3.33 226.11C3.53667 226.297 3.84333 226.39 4.25 226.39C4.68333 226.39 5.00667 226.297 5.22 226.11C5.43333 225.917 5.54333 225.623 5.55 225.23C5.55667 224.93 5.56 224.597 5.56 224.23C5.56667 223.857 5.56667 223.487 5.56 223.12C5.55333 222.753 5.54667 222.42 5.54 222.12H7.71C7.72333 222.56 7.73 223.017 7.73 223.49C7.73667 223.957 7.73333 224.41 7.72 224.85C7.68 226.037 7.39 226.887 6.85 227.4C6.31667 227.913 5.45 228.17 4.25 228.17ZM11.9184 228.14C11.1518 228.14 10.5851 227.94 10.2184 227.54C9.85844 227.133 9.64177 226.477 9.56844 225.57C9.56177 225.423 9.5551 225.263 9.54844 225.09C9.54844 224.917 9.55177 224.76 9.55844 224.62C9.59844 224.113 9.70177 223.67 9.86844 223.29C10.0418 222.91 10.3084 222.57 10.6684 222.27C11.0284 221.97 11.5118 221.683 12.1184 221.41C12.4384 221.263 12.7584 221.13 13.0784 221.01C13.4051 220.883 13.7351 220.767 14.0684 220.66V218.61C14.0684 218.23 13.9951 217.947 13.8484 217.76C13.7018 217.573 13.4218 217.48 13.0084 217.48C12.6551 217.48 12.3984 217.56 12.2384 217.72C12.0851 217.873 11.9984 218.147 11.9784 218.54C11.9718 218.667 11.9651 218.843 11.9584 219.07C11.9584 219.297 11.9584 219.53 11.9584 219.77C11.9651 220.003 11.9718 220.197 11.9784 220.35H9.87844C9.87177 220.183 9.8651 219.94 9.85844 219.62C9.85177 219.3 9.85177 219.017 9.85844 218.77C9.8851 218.083 10.0051 217.523 10.2184 217.09C10.4318 216.657 10.7684 216.34 11.2284 216.14C11.6884 215.933 12.3018 215.83 13.0684 215.83C13.8684 215.83 14.4951 215.943 14.9484 216.17C15.4084 216.39 15.7351 216.74 15.9284 217.22C16.1218 217.7 16.2184 218.327 16.2184 219.1L16.2084 228H14.0484V226.81H13.7484C13.5551 227.257 13.3218 227.59 13.0484 227.81C12.7818 228.03 12.4051 228.14 11.9184 228.14ZM12.7684 226.56C13.0684 226.56 13.3251 226.473 13.5384 226.3C13.7584 226.127 13.9318 225.887 14.0584 225.58V222.16C13.8251 222.233 13.5918 222.32 13.3584 222.42C13.1251 222.513 12.8884 222.64 12.6484 222.8C12.2818 223.02 12.0351 223.283 11.9084 223.59C11.7884 223.89 11.7184 224.233 11.6984 224.62C11.6918 224.747 11.6884 224.877 11.6884 225.01C11.6884 225.143 11.6918 225.277 11.6984 225.41C11.7318 225.783 11.8384 226.07 12.0184 226.27C12.2051 226.463 12.4551 226.56 12.7684 226.56ZM18.5811 228V216H20.7411V217.18H21.1411C21.3744 216.747 21.6344 216.413 21.9211 216.18C22.2144 215.947 22.6278 215.83 23.1611 215.83C23.8944 215.83 24.4544 216.053 24.8411 216.5C25.2344 216.94 25.4344 217.677 25.4411 218.71V228H23.2811V218.53C23.2744 218.15 23.1878 217.873 23.0211 217.7C22.8611 217.527 22.6144 217.44 22.2811 217.44C21.9744 217.44 21.6711 217.533 21.3711 217.72C21.0778 217.9 20.8678 218.153 20.7411 218.48V228H18.5811ZM32.0416 220.35C32.0482 220.183 32.0516 219.983 32.0516 219.75C32.0582 219.517 32.0582 219.29 32.0516 219.07C32.0516 218.85 32.0516 218.673 32.0516 218.54C32.0382 218.147 31.9449 217.873 31.7716 217.72C31.6049 217.56 31.3282 217.48 30.9416 217.48C30.5549 217.48 30.2749 217.56 30.1016 217.72C29.9349 217.873 29.8449 218.147 29.8316 218.54C29.8182 219.133 29.8082 219.717 29.8016 220.29C29.7949 220.857 29.7916 221.42 29.7916 221.98C29.7916 222.54 29.7949 223.103 29.8016 223.67C29.8082 224.23 29.8182 224.803 29.8316 225.39C29.8449 225.81 29.9382 226.103 30.1116 226.27C30.2849 226.437 30.5716 226.52 30.9716 226.52C31.3449 226.52 31.6149 226.437 31.7816 226.27C31.9482 226.103 32.0382 225.81 32.0516 225.39C32.0582 225.183 32.0616 224.93 32.0616 224.63C32.0616 224.323 32.0549 223.983 32.0416 223.61H34.1516C34.1649 223.797 34.1749 224.043 34.1816 224.35C34.1882 224.657 34.1849 224.93 34.1716 225.17C34.1249 226.237 33.8549 227.003 33.3616 227.47C32.8682 227.937 32.0716 228.17 30.9716 228.17C29.8449 228.17 29.0249 227.937 28.5116 227.47C27.9982 227.003 27.7149 226.237 27.6616 225.17C27.6482 224.79 27.6382 224.327 27.6316 223.78C27.6249 223.227 27.6216 222.65 27.6216 222.05C27.6216 221.443 27.6249 220.86 27.6316 220.3C27.6382 219.74 27.6482 219.26 27.6616 218.86C27.7349 217.773 28.0216 216.997 28.5216 216.53C29.0282 216.063 29.8349 215.83 30.9416 215.83C32.0549 215.83 32.8616 216.06 33.3616 216.52C33.8616 216.973 34.1316 217.727 34.1716 218.78C34.1782 219.02 34.1782 219.297 34.1716 219.61C34.1716 219.917 34.1649 220.163 34.1516 220.35H32.0416ZM39.4698 228.17C38.3365 228.17 37.5132 227.937 36.9998 227.47C36.4932 227.003 36.2098 226.237 36.1498 225.17C36.1365 224.79 36.1265 224.327 36.1198 223.78C36.1132 223.227 36.1098 222.65 36.1098 222.05C36.1098 221.443 36.1132 220.86 36.1198 220.3C36.1265 219.74 36.1365 219.26 36.1498 218.86C36.2232 217.773 36.5132 216.997 37.0198 216.53C37.5265 216.063 38.3365 215.83 39.4498 215.83C40.5432 215.83 41.3365 216.06 41.8298 216.52C42.3298 216.973 42.6065 217.723 42.6598 218.77C42.6665 218.95 42.6698 219.233 42.6698 219.62C42.6765 220 42.6765 220.437 42.6698 220.93C42.6698 221.417 42.6598 221.903 42.6398 222.39H38.2798C38.2798 222.877 38.2832 223.37 38.2898 223.87C38.3032 224.363 38.3132 224.87 38.3198 225.39C38.3332 225.81 38.4265 226.103 38.5998 226.27C38.7798 226.437 39.0665 226.52 39.4598 226.52C39.8332 226.52 40.0998 226.437 40.2598 226.27C40.4198 226.103 40.5098 225.81 40.5298 225.39C40.5432 225.19 40.5498 224.937 40.5498 224.63C40.5498 224.323 40.5432 223.983 40.5298 223.61H42.6398C42.6532 223.79 42.6632 224.037 42.6698 224.35C42.6765 224.657 42.6732 224.93 42.6598 225.17C42.6065 226.237 42.3365 227.003 41.8498 227.47C41.3698 227.937 40.5765 228.17 39.4698 228.17ZM38.2798 220.84H40.5498C40.5565 220.513 40.5598 220.193 40.5598 219.88C40.5598 219.567 40.5565 219.293 40.5498 219.06C40.5432 218.82 40.5365 218.647 40.5298 218.54C40.5098 218.16 40.4165 217.89 40.2498 217.73C40.0898 217.563 39.8232 217.48 39.4498 217.48C39.0565 217.48 38.7732 217.563 38.5998 217.73C38.4265 217.89 38.3332 218.16 38.3198 218.54C38.3132 218.947 38.3065 219.34 38.2998 219.72C38.2932 220.1 38.2865 220.473 38.2798 220.84ZM44.6709 228V212H46.8309V228H44.6709ZM51.0786 228.14C50.3119 228.14 49.7453 227.94 49.3786 227.54C49.0186 227.133 48.8019 226.477 48.7286 225.57C48.7219 225.423 48.7153 225.263 48.7086 225.09C48.7086 224.917 48.7119 224.76 48.7186 224.62C48.7586 224.113 48.8619 223.67 49.0286 223.29C49.2019 222.91 49.4686 222.57 49.8286 222.27C50.1886 221.97 50.6719 221.683 51.2786 221.41C51.5986 221.263 51.9186 221.13 52.2386 221.01C52.5653 220.883 52.8953 220.767 53.2286 220.66V218.61C53.2286 218.23 53.1553 217.947 53.0086 217.76C52.8619 217.573 52.5819 217.48 52.1686 217.48C51.8153 217.48 51.5586 217.56 51.3986 217.72C51.2453 217.873 51.1586 218.147 51.1386 218.54C51.1319 218.667 51.1253 218.843 51.1186 219.07C51.1186 219.297 51.1186 219.53 51.1186 219.77C51.1253 220.003 51.1319 220.197 51.1386 220.35H49.0386C49.0319 220.183 49.0253 219.94 49.0186 219.62C49.0119 219.3 49.0119 219.017 49.0186 218.77C49.0453 218.083 49.1653 217.523 49.3786 217.09C49.5919 216.657 49.9286 216.34 50.3886 216.14C50.8486 215.933 51.4619 215.83 52.2286 215.83C53.0286 215.83 53.6553 215.943 54.1086 216.17C54.5686 216.39 54.8953 216.74 55.0886 217.22C55.2819 217.7 55.3786 218.327 55.3786 219.1L55.3686 228H53.2086V226.81H52.9086C52.7153 227.257 52.4819 227.59 52.2086 227.81C51.9419 228.03 51.5653 228.14 51.0786 228.14ZM51.9286 226.56C52.2286 226.56 52.4853 226.473 52.6986 226.3C52.9186 226.127 53.0919 225.887 53.2186 225.58V222.16C52.9853 222.233 52.7519 222.32 52.5186 222.42C52.2853 222.513 52.0486 222.64 51.8086 222.8C51.4419 223.02 51.1953 223.283 51.0686 223.59C50.9486 223.89 50.8786 224.233 50.8586 224.62C50.8519 224.747 50.8486 224.877 50.8486 225.01C50.8486 225.143 50.8519 225.277 50.8586 225.41C50.8919 225.783 50.9986 226.07 51.1786 226.27C51.3653 226.463 51.6153 226.56 51.9286 226.56ZM57.7413 228V216H59.9013V217.18H60.2913C60.5313 216.74 60.7913 216.407 61.0713 216.18C61.3579 215.947 61.7746 215.83 62.3213 215.83C62.8613 215.83 63.3046 215.947 63.6513 216.18C63.9979 216.413 64.2479 216.793 64.4013 217.32H64.7713C65.0113 216.873 65.2946 216.513 65.6213 216.24C65.9479 215.967 66.3879 215.83 66.9413 215.83C67.6679 215.83 68.2246 216.053 68.6113 216.5C69.0046 216.94 69.2013 217.677 69.2013 218.71V228H67.0413V218.53C67.0413 218.15 66.9613 217.873 66.8013 217.7C66.6413 217.527 66.3946 217.44 66.0613 217.44C65.7546 217.44 65.4646 217.54 65.1913 217.74C64.9246 217.933 64.7246 218.193 64.5913 218.52V228H62.4312V218.53C62.4246 218.15 62.3413 217.873 62.1813 217.7C62.0213 217.527 61.7746 217.44 61.4413 217.44C61.1213 217.44 60.8146 217.527 60.5213 217.7C60.2346 217.873 60.0279 218.133 59.9013 218.48V228H57.7413ZM74.7316 228.17C73.5982 228.17 72.7749 227.937 72.2616 227.47C71.7549 227.003 71.4716 226.237 71.4116 225.17C71.3982 224.79 71.3882 224.327 71.3816 223.78C71.3749 223.227 71.3716 222.65 71.3716 222.05C71.3716 221.443 71.3749 220.86 71.3816 220.3C71.3882 219.74 71.3982 219.26 71.4116 218.86C71.4849 217.773 71.7749 216.997 72.2816 216.53C72.7882 216.063 73.5982 215.83 74.7116 215.83C75.8049 215.83 76.5982 216.06 77.0916 216.52C77.5916 216.973 77.8682 217.723 77.9216 218.77C77.9282 218.95 77.9316 219.233 77.9316 219.62C77.9382 220 77.9382 220.437 77.9316 220.93C77.9316 221.417 77.9216 221.903 77.9016 222.39H73.5416C73.5416 222.877 73.5449 223.37 73.5516 223.87C73.5649 224.363 73.5749 224.87 73.5816 225.39C73.5949 225.81 73.6882 226.103 73.8616 226.27C74.0416 226.437 74.3282 226.52 74.7216 226.52C75.0949 226.52 75.3616 226.437 75.5216 226.27C75.6816 226.103 75.7716 225.81 75.7916 225.39C75.8049 225.19 75.8116 224.937 75.8116 224.63C75.8116 224.323 75.8049 223.983 75.7916 223.61H77.9016C77.9149 223.79 77.9249 224.037 77.9316 224.35C77.9382 224.657 77.9349 224.93 77.9216 225.17C77.8682 226.237 77.5982 227.003 77.1116 227.47C76.6316 227.937 75.8382 228.17 74.7316 228.17ZM73.5416 220.84H75.8116C75.8182 220.513 75.8216 220.193 75.8216 219.88C75.8216 219.567 75.8182 219.293 75.8116 219.06C75.8049 218.82 75.7982 218.647 75.7916 218.54C75.7716 218.16 75.6782 217.89 75.5116 217.73C75.3516 217.563 75.0849 217.48 74.7116 217.48C74.3182 217.48 74.0349 217.563 73.8616 217.73C73.6882 217.89 73.5949 218.16 73.5816 218.54C73.5749 218.947 73.5682 219.34 73.5616 219.72C73.5549 220.1 73.5482 220.473 73.5416 220.84ZM80.0694 228V216H82.2294V217.18H82.6294C82.8627 216.747 83.1227 216.413 83.4094 216.18C83.7027 215.947 84.116 215.83 84.6494 215.83C85.3827 215.83 85.9427 216.053 86.3294 216.5C86.7227 216.94 86.9227 217.677 86.9294 218.71V228H84.7694V218.53C84.7627 218.15 84.676 217.873 84.5094 217.7C84.3494 217.527 84.1027 217.44 83.7694 217.44C83.4627 217.44 83.1594 217.533 82.8594 217.72C82.566 217.9 82.356 218.153 82.2294 218.48V228H80.0694ZM93.0698 228.17C91.8432 228.17 90.9732 227.937 90.4598 227.47C89.9532 227.003 89.6998 226.237 89.6998 225.17V217.66H88.7198V216H89.7198V212.6H91.8898V216H93.7998V217.66H91.8598V225.41C91.8598 225.83 91.9332 226.123 92.0798 226.29C92.2332 226.45 92.5665 226.53 93.0798 226.53C93.2532 226.53 93.4065 226.527 93.5398 226.52C93.6732 226.513 93.8265 226.503 93.9998 226.49V228.07C93.8598 228.103 93.7098 228.127 93.5498 228.14C93.3965 228.16 93.2365 228.17 93.0698 228.17ZM98.8988 228.17C98.0988 228.17 97.4588 228.06 96.9788 227.84C96.5054 227.62 96.1588 227.267 95.9388 226.78C95.7188 226.293 95.5854 225.653 95.5388 224.86C95.5254 224.48 95.5121 224.043 95.4988 223.55C95.4921 223.057 95.4888 222.547 95.4888 222.02C95.4888 221.493 95.4921 220.98 95.4988 220.48C95.5121 219.98 95.5254 219.53 95.5388 219.13C95.5854 218.343 95.7188 217.71 95.9388 217.23C96.1588 216.743 96.5054 216.39 96.9788 216.17C97.4588 215.943 98.0988 215.83 98.8988 215.83C99.7121 215.83 100.352 215.943 100.819 216.17C101.292 216.39 101.639 216.743 101.859 217.23C102.079 217.71 102.209 218.343 102.249 219.13C102.262 219.517 102.272 219.957 102.279 220.45C102.285 220.937 102.289 221.447 102.289 221.98C102.289 222.507 102.285 223.02 102.279 223.52C102.272 224.013 102.262 224.46 102.249 224.86C102.209 225.647 102.079 226.283 101.859 226.77C101.639 227.257 101.292 227.613 100.819 227.84C100.352 228.06 99.7121 228.17 98.8988 228.17ZM98.8988 226.52C99.3188 226.52 99.6188 226.43 99.7988 226.25C99.9788 226.07 100.072 225.78 100.079 225.38C100.099 224.793 100.112 224.22 100.119 223.66C100.132 223.1 100.139 222.543 100.139 221.99C100.139 221.437 100.132 220.883 100.119 220.33C100.112 219.77 100.099 219.197 100.079 218.61C100.072 218.217 99.9788 217.93 99.7988 217.75C99.6254 217.57 99.3254 217.48 98.8988 217.48C98.4854 217.48 98.1854 217.57 97.9988 217.75C97.8121 217.93 97.7121 218.217 97.6988 218.61C97.6854 219.197 97.6721 219.77 97.6587 220.33C97.6521 220.89 97.6488 221.447 97.6488 222C97.6488 222.553 97.6521 223.11 97.6587 223.67C97.6721 224.23 97.6854 224.8 97.6988 225.38C97.7121 225.78 97.8121 226.07 97.9988 226.25C98.1854 226.43 98.4854 226.52 98.8988 226.52ZM111.465 228.17C110.732 228.17 110.175 227.947 109.795 227.5C109.422 227.053 109.212 226.317 109.165 225.29C109.152 224.85 109.142 224.35 109.135 223.79C109.129 223.223 109.125 222.64 109.125 222.04C109.125 221.44 109.129 220.853 109.135 220.28C109.142 219.707 109.152 219.183 109.165 218.71C109.212 217.677 109.429 216.94 109.815 216.5C110.209 216.053 110.769 215.83 111.495 215.83C112.042 215.83 112.455 215.947 112.735 216.18C113.015 216.407 113.275 216.74 113.515 217.18H113.845V212H116.005V228H113.845V226.82H113.505C113.265 227.253 113.002 227.587 112.715 227.82C112.429 228.053 112.012 228.17 111.465 228.17ZM112.305 226.56C112.632 226.56 112.939 226.473 113.225 226.3C113.512 226.12 113.719 225.86 113.845 225.52V218.48C113.719 218.133 113.512 217.873 113.225 217.7C112.939 217.527 112.632 217.44 112.305 217.44C111.979 217.44 111.739 217.527 111.585 217.7C111.432 217.873 111.349 218.15 111.335 218.53C111.302 219.277 111.282 220.06 111.275 220.88C111.269 221.7 111.269 222.507 111.275 223.3C111.282 224.087 111.302 224.81 111.335 225.47C111.349 225.85 111.429 226.127 111.575 226.3C111.729 226.473 111.972 226.56 112.305 226.56ZM121.325 228.17C120.192 228.17 119.369 227.937 118.855 227.47C118.349 227.003 118.065 226.237 118.005 225.17C117.992 224.79 117.982 224.327 117.975 223.78C117.969 223.227 117.965 222.65 117.965 222.05C117.965 221.443 117.969 220.86 117.975 220.3C117.982 219.74 117.992 219.26 118.005 218.86C118.079 217.773 118.369 216.997 118.875 216.53C119.382 216.063 120.192 215.83 121.305 215.83C122.399 215.83 123.192 216.06 123.685 216.52C124.185 216.973 124.462 217.723 124.515 218.77C124.522 218.95 124.525 219.233 124.525 219.62C124.532 220 124.532 220.437 124.525 220.93C124.525 221.417 124.515 221.903 124.495 222.39H120.135C120.135 222.877 120.139 223.37 120.145 223.87C120.159 224.363 120.169 224.87 120.175 225.39C120.189 225.81 120.282 226.103 120.455 226.27C120.635 226.437 120.922 226.52 121.315 226.52C121.689 226.52 121.955 226.437 122.115 226.27C122.275 226.103 122.365 225.81 122.385 225.39C122.399 225.19 122.405 224.937 122.405 224.63C122.405 224.323 122.399 223.983 122.385 223.61H124.495C124.509 223.79 124.519 224.037 124.525 224.35C124.532 224.657 124.529 224.93 124.515 225.17C124.462 226.237 124.192 227.003 123.705 227.47C123.225 227.937 122.432 228.17 121.325 228.17ZM120.135 220.84H122.405C122.412 220.513 122.415 220.193 122.415 219.88C122.415 219.567 122.412 219.293 122.405 219.06C122.399 218.82 122.392 218.647 122.385 218.54C122.365 218.16 122.272 217.89 122.105 217.73C121.945 217.563 121.679 217.48 121.305 217.48C120.912 217.48 120.629 217.563 120.455 217.73C120.282 217.89 120.189 218.16 120.175 218.54C120.169 218.947 120.162 219.34 120.155 219.72C120.149 220.1 120.142 220.473 120.135 220.84ZM131.44 228V216H133.6V217.32H134C134.087 216.807 134.26 216.45 134.52 216.25C134.787 216.05 135.137 215.95 135.57 215.95C135.71 215.95 135.847 215.953 135.98 215.96C136.12 215.967 136.23 215.973 136.31 215.98V217.66H135.59C134.93 217.66 134.454 217.77 134.16 217.99C133.874 218.21 133.687 218.537 133.6 218.97V228H131.44ZM140.167 228.17C139.44 228.17 138.87 227.947 138.457 227.5C138.044 227.053 137.837 226.317 137.837 225.29V216H139.997V225.47C139.997 225.85 140.074 226.127 140.227 226.3C140.387 226.473 140.634 226.56 140.967 226.56C141.28 226.56 141.584 226.47 141.877 226.29C142.177 226.103 142.387 225.847 142.507 225.52V216H144.667V228H142.507V226.82H142.187C141.934 227.287 141.644 227.63 141.317 227.85C140.997 228.063 140.614 228.17 140.167 228.17ZM147.089 228V216H149.249V228H147.089ZM147.529 215.2L149.199 212.68H150.659L148.919 215.2H147.529ZM153.821 228.17C153.088 228.17 152.531 227.947 152.151 227.5C151.778 227.053 151.568 226.317 151.521 225.29C151.508 224.85 151.498 224.35 151.491 223.79C151.484 223.223 151.481 222.64 151.481 222.04C151.481 221.44 151.484 220.853 151.491 220.28C151.498 219.707 151.508 219.183 151.521 218.71C151.568 217.677 151.784 216.94 152.171 216.5C152.564 216.053 153.124 215.83 153.851 215.83C154.398 215.83 154.811 215.947 155.091 216.18C155.371 216.407 155.631 216.74 155.871 217.18H156.201V212H158.361V228H156.201V226.82H155.861C155.621 227.253 155.358 227.587 155.071 227.82C154.784 228.053 154.368 228.17 153.821 228.17ZM154.661 226.56C154.988 226.56 155.294 226.473 155.581 226.3C155.868 226.12 156.074 225.86 156.201 225.52V218.48C156.074 218.133 155.868 217.873 155.581 217.7C155.294 217.527 154.988 217.44 154.661 217.44C154.334 217.44 154.094 217.527 153.941 217.7C153.788 217.873 153.704 218.15 153.691 218.53C153.658 219.277 153.638 220.06 153.631 220.88C153.624 221.7 153.624 222.507 153.631 223.3C153.638 224.087 153.658 224.81 153.691 225.47C153.704 225.85 153.784 226.127 153.931 226.3C154.084 226.473 154.328 226.56 154.661 226.56ZM163.731 228.17C162.931 228.17 162.291 228.06 161.811 227.84C161.337 227.62 160.991 227.267 160.771 226.78C160.551 226.293 160.417 225.653 160.371 224.86C160.357 224.48 160.344 224.043 160.331 223.55C160.324 223.057 160.321 222.547 160.321 222.02C160.321 221.493 160.324 220.98 160.331 220.48C160.344 219.98 160.357 219.53 160.371 219.13C160.417 218.343 160.551 217.71 160.771 217.23C160.991 216.743 161.337 216.39 161.811 216.17C162.291 215.943 162.931 215.83 163.731 215.83C164.544 215.83 165.184 215.943 165.651 216.17C166.124 216.39 166.471 216.743 166.691 217.23C166.911 217.71 167.041 218.343 167.081 219.13C167.094 219.517 167.104 219.957 167.111 220.45C167.117 220.937 167.121 221.447 167.121 221.98C167.121 222.507 167.117 223.02 167.111 223.52C167.104 224.013 167.094 224.46 167.081 224.86C167.041 225.647 166.911 226.283 166.691 226.77C166.471 227.257 166.124 227.613 165.651 227.84C165.184 228.06 164.544 228.17 163.731 228.17ZM163.731 226.52C164.151 226.52 164.451 226.43 164.631 226.25C164.811 226.07 164.904 225.78 164.911 225.38C164.931 224.793 164.944 224.22 164.951 223.66C164.964 223.1 164.971 222.543 164.971 221.99C164.971 221.437 164.964 220.883 164.951 220.33C164.944 219.77 164.931 219.197 164.911 218.61C164.904 218.217 164.811 217.93 164.631 217.75C164.457 217.57 164.157 217.48 163.731 217.48C163.317 217.48 163.017 217.57 162.831 217.75C162.644 217.93 162.544 218.217 162.531 218.61C162.517 219.197 162.504 219.77 162.491 220.33C162.484 220.89 162.481 221.447 162.481 222C162.481 222.553 162.484 223.11 162.491 223.67C162.504 224.23 162.517 224.8 162.531 225.38C162.544 225.78 162.644 226.07 162.831 226.25C163.017 226.43 163.317 226.52 163.731 226.52Z" fill="#FEFEFE"/>
</svg>
