<svg width="854" height="832" viewBox="0 0 854 832" fill="none" xmlns="http://www.w3.org/2000/svg">
<rect x="238" y="282" width="80" height="80" rx="10" fill="url(#paint0_linear_255_78)" fill-opacity="0.1"/>
<rect x="359" y="282" width="80" height="80" rx="10" fill="url(#paint1_linear_255_78)" fill-opacity="0.1"/>
<rect x="278" y="376" width="80" height="80" rx="10" fill="url(#paint2_linear_255_78)" fill-opacity="0.1"/>
<rect x="516" y="376" width="80" height="80" rx="10" fill="url(#paint3_linear_255_78)" fill-opacity="0.1"/>
<rect x="359" y="470" width="80" height="80" rx="10" fill="url(#paint4_linear_255_78)" fill-opacity="0.1"/>
<rect x="487" y="470" width="80" height="80" rx="10" fill="url(#paint5_linear_255_78)" fill-opacity="0.1"/>
<rect x="399" y="376" width="80" height="80" rx="10" fill="url(#paint6_linear_255_78)" fill-opacity="0.1"/>
<rect x="231" y="470" width="80" height="80" rx="10" fill="url(#paint7_linear_255_78)" fill-opacity="0.1"/>
<rect x="479" y="282" width="80" height="80" rx="10" fill="url(#paint8_linear_255_78)" fill-opacity="0.1"/>
<g filter="url(#filter0_f_255_78)">
<rect x="270" y="270" width="314" height="298" rx="20" fill="#5319C6"/>
</g>
<path d="M422.5 354V370M414 362H431" stroke="white" stroke-width="4" stroke-linecap="round"/>
<path d="M427 441.019C427.01 440.19 426.347 439.51 425.519 439.5C424.69 439.49 424.01 440.153 424 440.981L427 441.019ZM425 481L433.847 466.109L416.528 465.893L425 481ZM424 440.981L423.669 467.482L426.669 467.52L427 441.019L424 440.981Z" fill="white"/>
<path d="M355 322.029H496" stroke="#FEFEFE" stroke-width="3" stroke-linecap="round"/>
<path d="M369.53 321.239C369.835 315.86 373.496 304.888 385.699 304.036C392.41 303.567 403.881 307.598 404.003 321.239C403.85 327.886 406.962 341.486 420.629 342.704C425.764 343.161 436.675 340.268 439.238 325.045C440.425 317.992 443.204 304.036 457.847 304.036C462.728 304.036 472.887 307.476 474.473 321.239" stroke="#0CAE93" stroke-width="7" stroke-linecap="round"/>
<path d="M365.1 297.17C363.907 297.17 363.053 296.913 362.54 296.4C362.027 295.88 361.747 295.027 361.7 293.84C361.693 293.527 361.687 293.223 361.68 292.93C361.68 292.63 361.683 292.33 361.69 292.03C361.703 291.73 361.723 291.423 361.75 291.11H363.79C363.763 291.643 363.747 292.177 363.74 292.71C363.74 293.243 363.757 293.747 363.79 294.22C363.817 294.613 363.933 294.907 364.14 295.1C364.347 295.287 364.663 295.38 365.09 295.38C365.51 295.38 365.813 295.287 366 295.1C366.187 294.907 366.3 294.613 366.34 294.22C366.36 293.92 366.373 293.64 366.38 293.38C366.387 293.12 366.387 292.857 366.38 292.59C366.373 292.323 366.36 292.03 366.34 291.71C366.313 291.317 366.233 290.98 366.1 290.7C365.967 290.42 365.723 290.233 365.37 290.14L364.03 289.8C363.43 289.647 362.96 289.423 362.62 289.13C362.28 288.83 362.037 288.45 361.89 287.99C361.743 287.53 361.66 286.98 361.64 286.34C361.633 285.98 361.63 285.613 361.63 285.24C361.637 284.867 361.643 284.497 361.65 284.13C361.677 283.343 361.803 282.71 362.03 282.23C362.263 281.743 362.627 281.39 363.12 281.17C363.62 280.943 364.277 280.83 365.09 280.83C366.243 280.83 367.077 281.087 367.59 281.6C368.11 282.113 368.393 282.96 368.44 284.14C368.453 284.467 368.457 284.87 368.45 285.35C368.443 285.823 368.43 286.297 368.41 286.77H366.33C366.35 286.27 366.36 285.77 366.36 285.27C366.367 284.763 366.36 284.26 366.34 283.76C366.333 283.373 366.223 283.087 366.01 282.9C365.797 282.707 365.487 282.61 365.08 282.61C364.653 282.61 364.343 282.707 364.15 282.9C363.957 283.087 363.843 283.373 363.81 283.76C363.777 284.187 363.76 284.617 363.76 285.05C363.767 285.483 363.783 285.913 363.81 286.34C363.837 286.767 363.92 287.11 364.06 287.37C364.2 287.63 364.453 287.807 364.82 287.9L366.03 288.19C366.663 288.337 367.157 288.567 367.51 288.88C367.863 289.187 368.113 289.577 368.26 290.05C368.407 290.517 368.49 291.07 368.51 291.71C368.523 291.99 368.53 292.243 368.53 292.47C368.53 292.697 368.527 292.92 368.52 293.14C368.513 293.353 368.507 293.587 368.5 293.84C368.453 295.027 368.17 295.88 367.65 296.4C367.137 296.913 366.287 297.17 365.1 297.17ZM373.825 297.17C373.025 297.17 372.385 297.06 371.905 296.84C371.431 296.62 371.085 296.267 370.865 295.78C370.645 295.293 370.511 294.653 370.465 293.86C370.451 293.48 370.438 293.043 370.425 292.55C370.418 292.057 370.415 291.547 370.415 291.02C370.415 290.493 370.418 289.98 370.425 289.48C370.438 288.98 370.451 288.53 370.465 288.13C370.511 287.343 370.645 286.71 370.865 286.23C371.085 285.743 371.431 285.39 371.905 285.17C372.385 284.943 373.025 284.83 373.825 284.83C374.638 284.83 375.278 284.943 375.745 285.17C376.218 285.39 376.565 285.743 376.785 286.23C377.005 286.71 377.135 287.343 377.175 288.13C377.188 288.517 377.198 288.957 377.205 289.45C377.211 289.937 377.215 290.447 377.215 290.98C377.215 291.507 377.211 292.02 377.205 292.52C377.198 293.013 377.188 293.46 377.175 293.86C377.135 294.647 377.005 295.283 376.785 295.77C376.565 296.257 376.218 296.613 375.745 296.84C375.278 297.06 374.638 297.17 373.825 297.17ZM373.825 295.52C374.245 295.52 374.545 295.43 374.725 295.25C374.905 295.07 374.998 294.78 375.005 294.38C375.025 293.793 375.038 293.22 375.045 292.66C375.058 292.1 375.065 291.543 375.065 290.99C375.065 290.437 375.058 289.883 375.045 289.33C375.038 288.77 375.025 288.197 375.005 287.61C374.998 287.217 374.905 286.93 374.725 286.75C374.551 286.57 374.251 286.48 373.825 286.48C373.411 286.48 373.111 286.57 372.925 286.75C372.738 286.93 372.638 287.217 372.625 287.61C372.611 288.197 372.598 288.77 372.585 289.33C372.578 289.89 372.575 290.447 372.575 291C372.575 291.553 372.578 292.11 372.585 292.67C372.598 293.23 372.611 293.8 372.625 294.38C372.638 294.78 372.738 295.07 372.925 295.25C373.111 295.43 373.411 295.52 373.825 295.52ZM379.464 297V285H381.624V286.18H382.014C382.254 285.74 382.514 285.407 382.794 285.18C383.081 284.947 383.497 284.83 384.044 284.83C384.584 284.83 385.027 284.947 385.374 285.18C385.721 285.413 385.971 285.793 386.124 286.32H386.494C386.734 285.873 387.017 285.513 387.344 285.24C387.671 284.967 388.111 284.83 388.664 284.83C389.391 284.83 389.947 285.053 390.334 285.5C390.727 285.94 390.924 286.677 390.924 287.71V297H388.764V287.53C388.764 287.15 388.684 286.873 388.524 286.7C388.364 286.527 388.117 286.44 387.784 286.44C387.477 286.44 387.187 286.54 386.914 286.74C386.647 286.933 386.447 287.193 386.314 287.52V297H384.154V287.53C384.147 287.15 384.064 286.873 383.904 286.7C383.744 286.527 383.497 286.44 383.164 286.44C382.844 286.44 382.537 286.527 382.244 286.7C381.957 286.873 381.751 287.133 381.624 287.48V297H379.464ZM400.212 297.17C399.478 297.17 398.922 296.947 398.542 296.5C398.168 296.053 397.958 295.317 397.912 294.29C397.898 293.85 397.888 293.35 397.882 292.79C397.875 292.223 397.872 291.64 397.872 291.04C397.872 290.44 397.875 289.853 397.882 289.28C397.888 288.707 397.898 288.183 397.912 287.71C397.958 286.677 398.175 285.94 398.562 285.5C398.955 285.053 399.515 284.83 400.242 284.83C400.788 284.83 401.202 284.947 401.482 285.18C401.762 285.407 402.022 285.74 402.262 286.18H402.592V281H404.752V297H402.592V295.82H402.252C402.012 296.253 401.748 296.587 401.462 296.82C401.175 297.053 400.758 297.17 400.212 297.17ZM401.052 295.56C401.378 295.56 401.685 295.473 401.972 295.3C402.258 295.12 402.465 294.86 402.592 294.52V287.48C402.465 287.133 402.258 286.873 401.972 286.7C401.685 286.527 401.378 286.44 401.052 286.44C400.725 286.44 400.485 286.527 400.332 286.7C400.178 286.873 400.095 287.15 400.082 287.53C400.048 288.277 400.028 289.06 400.022 289.88C400.015 290.7 400.015 291.507 400.022 292.3C400.028 293.087 400.048 293.81 400.082 294.47C400.095 294.85 400.175 295.127 400.322 295.3C400.475 295.473 400.718 295.56 401.052 295.56ZM410.121 297.17C409.321 297.17 408.681 297.06 408.201 296.84C407.728 296.62 407.381 296.267 407.161 295.78C406.941 295.293 406.808 294.653 406.761 293.86C406.748 293.48 406.735 293.043 406.721 292.55C406.715 292.057 406.711 291.547 406.711 291.02C406.711 290.493 406.715 289.98 406.721 289.48C406.735 288.98 406.748 288.53 406.761 288.13C406.808 287.343 406.941 286.71 407.161 286.23C407.381 285.743 407.728 285.39 408.201 285.17C408.681 284.943 409.321 284.83 410.121 284.83C410.935 284.83 411.575 284.943 412.041 285.17C412.515 285.39 412.861 285.743 413.081 286.23C413.301 286.71 413.431 287.343 413.471 288.13C413.485 288.517 413.495 288.957 413.501 289.45C413.508 289.937 413.511 290.447 413.511 290.98C413.511 291.507 413.508 292.02 413.501 292.52C413.495 293.013 413.485 293.46 413.471 293.86C413.431 294.647 413.301 295.283 413.081 295.77C412.861 296.257 412.515 296.613 412.041 296.84C411.575 297.06 410.935 297.17 410.121 297.17ZM410.121 295.52C410.541 295.52 410.841 295.43 411.021 295.25C411.201 295.07 411.295 294.78 411.301 294.38C411.321 293.793 411.335 293.22 411.341 292.66C411.355 292.1 411.361 291.543 411.361 290.99C411.361 290.437 411.355 289.883 411.341 289.33C411.335 288.77 411.321 288.197 411.301 287.61C411.295 287.217 411.201 286.93 411.021 286.75C410.848 286.57 410.548 286.48 410.121 286.48C409.708 286.48 409.408 286.57 409.221 286.75C409.035 286.93 408.935 287.217 408.921 287.61C408.908 288.197 408.895 288.77 408.881 289.33C408.875 289.89 408.871 290.447 408.871 291C408.871 291.553 408.875 292.11 408.881 292.67C408.895 293.23 408.908 293.8 408.921 294.38C408.935 294.78 409.035 295.07 409.221 295.25C409.408 295.43 409.708 295.52 410.121 295.52ZM422.598 297.14C421.831 297.14 421.265 296.94 420.898 296.54C420.538 296.133 420.321 295.477 420.248 294.57C420.241 294.423 420.235 294.263 420.228 294.09C420.228 293.917 420.231 293.76 420.238 293.62C420.278 293.113 420.381 292.67 420.548 292.29C420.721 291.91 420.988 291.57 421.348 291.27C421.708 290.97 422.191 290.683 422.798 290.41C423.118 290.263 423.438 290.13 423.758 290.01C424.085 289.883 424.415 289.767 424.748 289.66V287.61C424.748 287.23 424.675 286.947 424.528 286.76C424.381 286.573 424.101 286.48 423.688 286.48C423.335 286.48 423.078 286.56 422.918 286.72C422.765 286.873 422.678 287.147 422.658 287.54C422.651 287.667 422.645 287.843 422.638 288.07C422.638 288.297 422.638 288.53 422.638 288.77C422.645 289.003 422.651 289.197 422.658 289.35H420.558C420.551 289.183 420.545 288.94 420.538 288.62C420.531 288.3 420.531 288.017 420.538 287.77C420.565 287.083 420.685 286.523 420.898 286.09C421.111 285.657 421.448 285.34 421.908 285.14C422.368 284.933 422.981 284.83 423.748 284.83C424.548 284.83 425.175 284.943 425.628 285.17C426.088 285.39 426.415 285.74 426.608 286.22C426.801 286.7 426.898 287.327 426.898 288.1L426.888 297H424.728V295.81H424.428C424.235 296.257 424.001 296.59 423.728 296.81C423.461 297.03 423.085 297.14 422.598 297.14ZM423.448 295.56C423.748 295.56 424.005 295.473 424.218 295.3C424.438 295.127 424.611 294.887 424.738 294.58V291.16C424.505 291.233 424.271 291.32 424.038 291.42C423.805 291.513 423.568 291.64 423.328 291.8C422.961 292.02 422.715 292.283 422.588 292.59C422.468 292.89 422.398 293.233 422.378 293.62C422.371 293.747 422.368 293.877 422.368 294.01C422.368 294.143 422.371 294.277 422.378 294.41C422.411 294.783 422.518 295.07 422.698 295.27C422.885 295.463 423.135 295.56 423.448 295.56ZM429.261 297V285H431.421V286.18H431.811C432.051 285.74 432.311 285.407 432.591 285.18C432.877 284.947 433.294 284.83 433.841 284.83C434.381 284.83 434.824 284.947 435.171 285.18C435.517 285.413 435.767 285.793 435.921 286.32H436.291C436.531 285.873 436.814 285.513 437.141 285.24C437.467 284.967 437.907 284.83 438.461 284.83C439.187 284.83 439.744 285.053 440.131 285.5C440.524 285.94 440.721 286.677 440.721 287.71V297H438.561V287.53C438.561 287.15 438.481 286.873 438.321 286.7C438.161 286.527 437.914 286.44 437.581 286.44C437.274 286.44 436.984 286.54 436.711 286.74C436.444 286.933 436.244 287.193 436.111 287.52V297H433.951V287.53C433.944 287.15 433.861 286.873 433.701 286.7C433.541 286.527 433.294 286.44 432.961 286.44C432.641 286.44 432.334 286.527 432.041 286.7C431.754 286.873 431.547 287.133 431.421 287.48V297H429.261ZM447.531 297.17C446.984 297.17 446.571 297.057 446.291 296.83C446.011 296.597 445.751 296.26 445.511 295.82H445.241V297H443.081V281H445.241V286.18H445.641C445.881 285.74 446.141 285.407 446.421 285.18C446.708 284.947 447.121 284.83 447.661 284.83C448.394 284.83 448.941 285.053 449.301 285.5C449.668 285.94 449.871 286.677 449.911 287.71C449.924 288.183 449.934 288.707 449.941 289.28C449.954 289.853 449.961 290.44 449.961 291.04C449.961 291.64 449.954 292.223 449.941 292.79C449.934 293.35 449.924 293.85 449.911 294.29C449.871 295.317 449.644 296.053 449.231 296.5C448.824 296.947 448.258 297.17 447.531 297.17ZM446.781 295.56C447.114 295.56 447.354 295.473 447.501 295.3C447.654 295.127 447.738 294.85 447.751 294.47C447.778 293.977 447.794 293.447 447.801 292.88C447.814 292.307 447.821 291.717 447.821 291.11C447.821 290.497 447.814 289.887 447.801 289.28C447.794 288.673 447.778 288.09 447.751 287.53C447.738 287.15 447.654 286.873 447.501 286.7C447.354 286.527 447.114 286.44 446.781 286.44C446.461 286.44 446.154 286.527 445.861 286.7C445.574 286.873 445.368 287.133 445.241 287.48V294.52C445.368 294.86 445.574 295.12 445.861 295.3C446.154 295.473 446.461 295.56 446.781 295.56ZM452.004 282.93V281H454.554V282.93H452.004ZM452.194 297V285H454.354V297H452.194ZM459.946 297.17C458.813 297.17 457.99 296.937 457.476 296.47C456.97 296.003 456.686 295.237 456.626 294.17C456.613 293.79 456.603 293.327 456.596 292.78C456.59 292.227 456.586 291.65 456.586 291.05C456.586 290.443 456.59 289.86 456.596 289.3C456.603 288.74 456.613 288.26 456.626 287.86C456.7 286.773 456.99 285.997 457.496 285.53C458.003 285.063 458.813 284.83 459.926 284.83C461.02 284.83 461.813 285.06 462.306 285.52C462.806 285.973 463.083 286.723 463.136 287.77C463.143 287.95 463.146 288.233 463.146 288.62C463.153 289 463.153 289.437 463.146 289.93C463.146 290.417 463.136 290.903 463.116 291.39H458.756C458.756 291.877 458.76 292.37 458.766 292.87C458.78 293.363 458.79 293.87 458.796 294.39C458.81 294.81 458.903 295.103 459.076 295.27C459.256 295.437 459.543 295.52 459.936 295.52C460.31 295.52 460.576 295.437 460.736 295.27C460.896 295.103 460.986 294.81 461.006 294.39C461.02 294.19 461.026 293.937 461.026 293.63C461.026 293.323 461.02 292.983 461.006 292.61H463.116C463.13 292.79 463.14 293.037 463.146 293.35C463.153 293.657 463.15 293.93 463.136 294.17C463.083 295.237 462.813 296.003 462.326 296.47C461.846 296.937 461.053 297.17 459.946 297.17ZM458.756 289.84H461.026C461.033 289.513 461.036 289.193 461.036 288.88C461.036 288.567 461.033 288.293 461.026 288.06C461.02 287.82 461.013 287.647 461.006 287.54C460.986 287.16 460.893 286.89 460.726 286.73C460.566 286.563 460.3 286.48 459.926 286.48C459.533 286.48 459.25 286.563 459.076 286.73C458.903 286.89 458.81 287.16 458.796 287.54C458.79 287.947 458.783 288.34 458.776 288.72C458.77 289.1 458.763 289.473 458.756 289.84ZM465.284 297V285H467.444V286.18H467.844C468.078 285.747 468.338 285.413 468.624 285.18C468.918 284.947 469.331 284.83 469.864 284.83C470.598 284.83 471.158 285.053 471.544 285.5C471.938 285.94 472.138 286.677 472.144 287.71V297H469.984V287.53C469.978 287.15 469.891 286.873 469.724 286.7C469.564 286.527 469.318 286.44 468.984 286.44C468.678 286.44 468.374 286.533 468.074 286.72C467.781 286.9 467.571 287.153 467.444 287.48V297H465.284ZM478.285 297.17C477.058 297.17 476.188 296.937 475.675 296.47C475.168 296.003 474.915 295.237 474.915 294.17V286.66H473.935V285H474.935V281.6H477.105V285H479.015V286.66H477.075V294.41C477.075 294.83 477.148 295.123 477.295 295.29C477.448 295.45 477.781 295.53 478.295 295.53C478.468 295.53 478.621 295.527 478.755 295.52C478.888 295.513 479.041 295.503 479.215 295.49V297.07C479.075 297.103 478.925 297.127 478.765 297.14C478.611 297.16 478.451 297.17 478.285 297.17ZM484.064 297.17C482.93 297.17 482.107 296.937 481.594 296.47C481.087 296.003 480.804 295.237 480.744 294.17C480.73 293.79 480.72 293.327 480.714 292.78C480.707 292.227 480.704 291.65 480.704 291.05C480.704 290.443 480.707 289.86 480.714 289.3C480.72 288.74 480.73 288.26 480.744 287.86C480.817 286.773 481.107 285.997 481.614 285.53C482.12 285.063 482.93 284.83 484.044 284.83C485.137 284.83 485.93 285.06 486.424 285.52C486.924 285.973 487.2 286.723 487.254 287.77C487.26 287.95 487.264 288.233 487.264 288.62C487.27 289 487.27 289.437 487.264 289.93C487.264 290.417 487.254 290.903 487.234 291.39H482.874C482.874 291.877 482.877 292.37 482.884 292.87C482.897 293.363 482.907 293.87 482.914 294.39C482.927 294.81 483.02 295.103 483.194 295.27C483.374 295.437 483.66 295.52 484.054 295.52C484.427 295.52 484.694 295.437 484.854 295.27C485.014 295.103 485.104 294.81 485.124 294.39C485.137 294.19 485.144 293.937 485.144 293.63C485.144 293.323 485.137 292.983 485.124 292.61H487.234C487.247 292.79 487.257 293.037 487.264 293.35C487.27 293.657 487.267 293.93 487.254 294.17C487.2 295.237 486.93 296.003 486.444 296.47C485.964 296.937 485.17 297.17 484.064 297.17ZM482.874 289.84H485.144C485.15 289.513 485.154 289.193 485.154 288.88C485.154 288.567 485.15 288.293 485.144 288.06C485.137 287.82 485.13 287.647 485.124 287.54C485.104 287.16 485.01 286.89 484.844 286.73C484.684 286.563 484.417 286.48 484.044 286.48C483.65 286.48 483.367 286.563 483.194 286.73C483.02 286.89 482.927 287.16 482.914 287.54C482.907 287.947 482.9 288.34 482.894 288.72C482.887 289.1 482.88 289.473 482.874 289.84Z" fill="#FEFEFE"/>
<path d="M355 424.312H496" stroke="#FEFEFE" stroke-width="3" stroke-linecap="round"/>
<path d="M474.474 425.649C474.169 431.063 470.508 442.106 458.305 442.964C451.594 443.436 440.123 439.378 440.001 425.649C440.154 418.958 437.042 405.27 423.375 404.044C418.24 403.585 407.329 406.496 404.766 421.819C403.579 428.917 400.8 442.964 386.157 442.964C381.276 442.964 371.117 439.501 369.531 425.649" stroke="#9867F8" stroke-width="7" stroke-linecap="round"/>
<path d="M357.1 395.17C355.907 395.17 355.053 394.913 354.54 394.4C354.027 393.88 353.747 393.027 353.7 391.84C353.693 391.527 353.687 391.223 353.68 390.93C353.68 390.63 353.683 390.33 353.69 390.03C353.703 389.73 353.723 389.423 353.75 389.11H355.79C355.763 389.643 355.747 390.177 355.74 390.71C355.74 391.243 355.757 391.747 355.79 392.22C355.817 392.613 355.933 392.907 356.14 393.1C356.347 393.287 356.663 393.38 357.09 393.38C357.51 393.38 357.813 393.287 358 393.1C358.187 392.907 358.3 392.613 358.34 392.22C358.36 391.92 358.373 391.64 358.38 391.38C358.387 391.12 358.387 390.857 358.38 390.59C358.373 390.323 358.36 390.03 358.34 389.71C358.313 389.317 358.233 388.98 358.1 388.7C357.967 388.42 357.723 388.233 357.37 388.14L356.03 387.8C355.43 387.647 354.96 387.423 354.62 387.13C354.28 386.83 354.037 386.45 353.89 385.99C353.743 385.53 353.66 384.98 353.64 384.34C353.633 383.98 353.63 383.613 353.63 383.24C353.637 382.867 353.643 382.497 353.65 382.13C353.677 381.343 353.803 380.71 354.03 380.23C354.263 379.743 354.627 379.39 355.12 379.17C355.62 378.943 356.277 378.83 357.09 378.83C358.243 378.83 359.077 379.087 359.59 379.6C360.11 380.113 360.393 380.96 360.44 382.14C360.453 382.467 360.457 382.87 360.45 383.35C360.443 383.823 360.43 384.297 360.41 384.77H358.33C358.35 384.27 358.36 383.77 358.36 383.27C358.367 382.763 358.36 382.26 358.34 381.76C358.333 381.373 358.223 381.087 358.01 380.9C357.797 380.707 357.487 380.61 357.08 380.61C356.653 380.61 356.343 380.707 356.15 380.9C355.957 381.087 355.843 381.373 355.81 381.76C355.777 382.187 355.76 382.617 355.76 383.05C355.767 383.483 355.783 383.913 355.81 384.34C355.837 384.767 355.92 385.11 356.06 385.37C356.2 385.63 356.453 385.807 356.82 385.9L358.03 386.19C358.663 386.337 359.157 386.567 359.51 386.88C359.863 387.187 360.113 387.577 360.26 388.05C360.407 388.517 360.49 389.07 360.51 389.71C360.523 389.99 360.53 390.243 360.53 390.47C360.53 390.697 360.527 390.92 360.52 391.14C360.513 391.353 360.507 391.587 360.5 391.84C360.453 393.027 360.17 393.88 359.65 394.4C359.137 394.913 358.287 395.17 357.1 395.17ZM365.825 395.17C365.025 395.17 364.385 395.06 363.905 394.84C363.431 394.62 363.085 394.267 362.865 393.78C362.645 393.293 362.511 392.653 362.465 391.86C362.451 391.48 362.438 391.043 362.425 390.55C362.418 390.057 362.415 389.547 362.415 389.02C362.415 388.493 362.418 387.98 362.425 387.48C362.438 386.98 362.451 386.53 362.465 386.13C362.511 385.343 362.645 384.71 362.865 384.23C363.085 383.743 363.431 383.39 363.905 383.17C364.385 382.943 365.025 382.83 365.825 382.83C366.638 382.83 367.278 382.943 367.745 383.17C368.218 383.39 368.565 383.743 368.785 384.23C369.005 384.71 369.135 385.343 369.175 386.13C369.188 386.517 369.198 386.957 369.205 387.45C369.211 387.937 369.215 388.447 369.215 388.98C369.215 389.507 369.211 390.02 369.205 390.52C369.198 391.013 369.188 391.46 369.175 391.86C369.135 392.647 369.005 393.283 368.785 393.77C368.565 394.257 368.218 394.613 367.745 394.84C367.278 395.06 366.638 395.17 365.825 395.17ZM365.825 393.52C366.245 393.52 366.545 393.43 366.725 393.25C366.905 393.07 366.998 392.78 367.005 392.38C367.025 391.793 367.038 391.22 367.045 390.66C367.058 390.1 367.065 389.543 367.065 388.99C367.065 388.437 367.058 387.883 367.045 387.33C367.038 386.77 367.025 386.197 367.005 385.61C366.998 385.217 366.905 384.93 366.725 384.75C366.551 384.57 366.251 384.48 365.825 384.48C365.411 384.48 365.111 384.57 364.925 384.75C364.738 384.93 364.638 385.217 364.625 385.61C364.611 386.197 364.598 386.77 364.585 387.33C364.578 387.89 364.575 388.447 364.575 389C364.575 389.553 364.578 390.11 364.585 390.67C364.598 391.23 364.611 391.8 364.625 392.38C364.638 392.78 364.738 393.07 364.925 393.25C365.111 393.43 365.411 393.52 365.825 393.52ZM371.464 395V383H373.624V384.18H374.014C374.254 383.74 374.514 383.407 374.794 383.18C375.081 382.947 375.497 382.83 376.044 382.83C376.584 382.83 377.027 382.947 377.374 383.18C377.721 383.413 377.971 383.793 378.124 384.32H378.494C378.734 383.873 379.017 383.513 379.344 383.24C379.671 382.967 380.111 382.83 380.664 382.83C381.391 382.83 381.947 383.053 382.334 383.5C382.727 383.94 382.924 384.677 382.924 385.71V395H380.764V385.53C380.764 385.15 380.684 384.873 380.524 384.7C380.364 384.527 380.117 384.44 379.784 384.44C379.477 384.44 379.187 384.54 378.914 384.74C378.647 384.933 378.447 385.193 378.314 385.52V395H376.154V385.53C376.147 385.15 376.064 384.873 375.904 384.7C375.744 384.527 375.497 384.44 375.164 384.44C374.844 384.44 374.537 384.527 374.244 384.7C373.957 384.873 373.751 385.133 373.624 385.48V395H371.464ZM392.212 395.17C391.478 395.17 390.922 394.947 390.542 394.5C390.168 394.053 389.958 393.317 389.912 392.29C389.898 391.85 389.888 391.35 389.882 390.79C389.875 390.223 389.872 389.64 389.872 389.04C389.872 388.44 389.875 387.853 389.882 387.28C389.888 386.707 389.898 386.183 389.912 385.71C389.958 384.677 390.175 383.94 390.562 383.5C390.955 383.053 391.515 382.83 392.242 382.83C392.788 382.83 393.202 382.947 393.482 383.18C393.762 383.407 394.022 383.74 394.262 384.18H394.592V379H396.752V395H394.592V393.82H394.252C394.012 394.253 393.748 394.587 393.462 394.82C393.175 395.053 392.758 395.17 392.212 395.17ZM393.052 393.56C393.378 393.56 393.685 393.473 393.972 393.3C394.258 393.12 394.465 392.86 394.592 392.52V385.48C394.465 385.133 394.258 384.873 393.972 384.7C393.685 384.527 393.378 384.44 393.052 384.44C392.725 384.44 392.485 384.527 392.332 384.7C392.178 384.873 392.095 385.15 392.082 385.53C392.048 386.277 392.028 387.06 392.022 387.88C392.015 388.7 392.015 389.507 392.022 390.3C392.028 391.087 392.048 391.81 392.082 392.47C392.095 392.85 392.175 393.127 392.322 393.3C392.475 393.473 392.718 393.56 393.052 393.56ZM402.071 395.17C400.938 395.17 400.115 394.937 399.601 394.47C399.095 394.003 398.811 393.237 398.751 392.17C398.738 391.79 398.728 391.327 398.721 390.78C398.715 390.227 398.711 389.65 398.711 389.05C398.711 388.443 398.715 387.86 398.721 387.3C398.728 386.74 398.738 386.26 398.751 385.86C398.825 384.773 399.115 383.997 399.621 383.53C400.128 383.063 400.938 382.83 402.051 382.83C403.145 382.83 403.938 383.06 404.431 383.52C404.931 383.973 405.208 384.723 405.261 385.77C405.268 385.95 405.271 386.233 405.271 386.62C405.278 387 405.278 387.437 405.271 387.93C405.271 388.417 405.261 388.903 405.241 389.39H400.881C400.881 389.877 400.885 390.37 400.891 390.87C400.905 391.363 400.915 391.87 400.921 392.39C400.935 392.81 401.028 393.103 401.201 393.27C401.381 393.437 401.668 393.52 402.061 393.52C402.435 393.52 402.701 393.437 402.861 393.27C403.021 393.103 403.111 392.81 403.131 392.39C403.145 392.19 403.151 391.937 403.151 391.63C403.151 391.323 403.145 390.983 403.131 390.61H405.241C405.255 390.79 405.265 391.037 405.271 391.35C405.278 391.657 405.275 391.93 405.261 392.17C405.208 393.237 404.938 394.003 404.451 394.47C403.971 394.937 403.178 395.17 402.071 395.17ZM400.881 387.84H403.151C403.158 387.513 403.161 387.193 403.161 386.88C403.161 386.567 403.158 386.293 403.151 386.06C403.145 385.82 403.138 385.647 403.131 385.54C403.111 385.16 403.018 384.89 402.851 384.73C402.691 384.563 402.425 384.48 402.051 384.48C401.658 384.48 401.375 384.563 401.201 384.73C401.028 384.89 400.935 385.16 400.921 385.54C400.915 385.947 400.908 386.34 400.901 386.72C400.895 387.1 400.888 387.473 400.881 387.84ZM412.156 395V384.66H411.016V383H412.156V381.8C412.149 380.733 412.413 379.97 412.946 379.51C413.479 379.043 414.309 378.81 415.436 378.81C415.643 378.81 415.863 378.823 416.096 378.85C416.336 378.877 416.559 378.91 416.766 378.95V380.55C416.559 380.537 416.343 380.527 416.116 380.52C415.896 380.513 415.673 380.51 415.446 380.51C415.059 380.51 414.773 380.6 414.586 380.78C414.399 380.96 414.309 381.247 414.316 381.64V383H416.356V384.66H414.316V395H412.156ZM419.864 395.14C419.097 395.14 418.53 394.94 418.164 394.54C417.804 394.133 417.587 393.477 417.514 392.57C417.507 392.423 417.5 392.263 417.494 392.09C417.494 391.917 417.497 391.76 417.504 391.62C417.544 391.113 417.647 390.67 417.814 390.29C417.987 389.91 418.254 389.57 418.614 389.27C418.974 388.97 419.457 388.683 420.064 388.41C420.384 388.263 420.704 388.13 421.024 388.01C421.35 387.883 421.68 387.767 422.014 387.66V385.61C422.014 385.23 421.94 384.947 421.794 384.76C421.647 384.573 421.367 384.48 420.954 384.48C420.6 384.48 420.344 384.56 420.184 384.72C420.03 384.873 419.944 385.147 419.924 385.54C419.917 385.667 419.91 385.843 419.904 386.07C419.904 386.297 419.904 386.53 419.904 386.77C419.91 387.003 419.917 387.197 419.924 387.35H417.824C417.817 387.183 417.81 386.94 417.804 386.62C417.797 386.3 417.797 386.017 417.804 385.77C417.83 385.083 417.95 384.523 418.164 384.09C418.377 383.657 418.714 383.34 419.174 383.14C419.634 382.933 420.247 382.83 421.014 382.83C421.814 382.83 422.44 382.943 422.894 383.17C423.354 383.39 423.68 383.74 423.874 384.22C424.067 384.7 424.164 385.327 424.164 386.1L424.154 395H421.994V393.81H421.694C421.5 394.257 421.267 394.59 420.994 394.81C420.727 395.03 420.35 395.14 419.864 395.14ZM420.714 393.56C421.014 393.56 421.27 393.473 421.484 393.3C421.704 393.127 421.877 392.887 422.004 392.58V389.16C421.77 389.233 421.537 389.32 421.304 389.42C421.07 389.513 420.834 389.64 420.594 389.8C420.227 390.02 419.98 390.283 419.854 390.59C419.734 390.89 419.664 391.233 419.644 391.62C419.637 391.747 419.634 391.877 419.634 392.01C419.634 392.143 419.637 392.277 419.644 392.41C419.677 392.783 419.784 393.07 419.964 393.27C420.15 393.463 420.4 393.56 420.714 393.56ZM429.296 395.17C428.223 395.17 427.456 394.937 426.996 394.47C426.543 394.003 426.296 393.237 426.256 392.17C426.25 391.93 426.246 391.657 426.246 391.35C426.253 391.043 426.263 390.797 426.276 390.61H428.176C428.17 390.983 428.166 391.323 428.166 391.63C428.166 391.93 428.17 392.183 428.176 392.39C428.19 392.81 428.286 393.103 428.466 393.27C428.646 393.437 428.923 393.52 429.296 393.52C429.73 393.52 430.04 393.437 430.226 393.27C430.42 393.103 430.52 392.81 430.526 392.39C430.526 392.21 430.526 392.077 430.526 391.99C430.526 391.897 430.526 391.81 430.526 391.73C430.533 391.643 430.533 391.517 430.526 391.35C430.526 391.003 430.473 390.73 430.366 390.53C430.26 390.323 430.063 390.177 429.776 390.09L428.596 389.73C428.07 389.563 427.63 389.36 427.276 389.12C426.923 388.873 426.656 388.557 426.476 388.17C426.303 387.783 426.213 387.297 426.206 386.71C426.206 386.563 426.206 386.423 426.206 386.29C426.206 386.157 426.21 386.017 426.216 385.87C426.223 384.783 426.46 384.007 426.926 383.54C427.4 383.067 428.226 382.83 429.406 382.83C430.493 382.83 431.256 383.06 431.696 383.52C432.143 383.973 432.39 384.727 432.436 385.78C432.443 386.02 432.443 386.297 432.436 386.61C432.436 386.917 432.43 387.163 432.416 387.35H430.446C430.453 387.183 430.456 386.983 430.456 386.75C430.463 386.517 430.463 386.29 430.456 386.07C430.456 385.85 430.453 385.673 430.446 385.54C430.433 385.147 430.35 384.873 430.196 384.72C430.05 384.56 429.786 384.48 429.406 384.48C429.006 384.48 428.73 384.56 428.576 384.72C428.423 384.873 428.34 385.147 428.326 385.54C428.32 385.733 428.313 385.89 428.306 386.01C428.3 386.123 428.3 386.3 428.306 386.54C428.306 386.913 428.353 387.22 428.446 387.46C428.54 387.7 428.76 387.873 429.106 387.98L430.166 388.27C430.96 388.47 431.553 388.797 431.946 389.25C432.34 389.697 432.536 390.36 432.536 391.24C432.536 391.393 432.533 391.557 432.526 391.73C432.526 391.903 432.523 392.07 432.516 392.23C432.51 393.277 432.26 394.03 431.766 394.49C431.28 394.943 430.456 395.17 429.296 395.17ZM437.794 395.17C436.661 395.17 435.837 394.937 435.324 394.47C434.817 394.003 434.534 393.237 434.474 392.17C434.461 391.79 434.451 391.327 434.444 390.78C434.437 390.227 434.434 389.65 434.434 389.05C434.434 388.443 434.437 387.86 434.444 387.3C434.451 386.74 434.461 386.26 434.474 385.86C434.547 384.773 434.837 383.997 435.344 383.53C435.851 383.063 436.661 382.83 437.774 382.83C438.867 382.83 439.661 383.06 440.154 383.52C440.654 383.973 440.931 384.723 440.984 385.77C440.991 385.95 440.994 386.233 440.994 386.62C441.001 387 441.001 387.437 440.994 387.93C440.994 388.417 440.984 388.903 440.964 389.39H436.604C436.604 389.877 436.607 390.37 436.614 390.87C436.627 391.363 436.637 391.87 436.644 392.39C436.657 392.81 436.751 393.103 436.924 393.27C437.104 393.437 437.391 393.52 437.784 393.52C438.157 393.52 438.424 393.437 438.584 393.27C438.744 393.103 438.834 392.81 438.854 392.39C438.867 392.19 438.874 391.937 438.874 391.63C438.874 391.323 438.867 390.983 438.854 390.61H440.964C440.977 390.79 440.987 391.037 440.994 391.35C441.001 391.657 440.997 391.93 440.984 392.17C440.931 393.237 440.661 394.003 440.174 394.47C439.694 394.937 438.901 395.17 437.794 395.17ZM436.604 387.84H438.874C438.881 387.513 438.884 387.193 438.884 386.88C438.884 386.567 438.881 386.293 438.874 386.06C438.867 385.82 438.861 385.647 438.854 385.54C438.834 385.16 438.741 384.89 438.574 384.73C438.414 384.563 438.147 384.48 437.774 384.48C437.381 384.48 437.097 384.563 436.924 384.73C436.751 384.89 436.657 385.16 436.644 385.54C436.637 385.947 436.631 386.34 436.624 386.72C436.617 387.1 436.611 387.473 436.604 387.84ZM447.719 380.93V379H450.269V380.93H447.719ZM447.909 395V383H450.069V395H447.909ZM452.491 395V383H454.651V384.18H455.051C455.285 383.747 455.545 383.413 455.831 383.18C456.125 382.947 456.538 382.83 457.071 382.83C457.805 382.83 458.365 383.053 458.751 383.5C459.145 383.94 459.345 384.677 459.351 385.71V395H457.191V385.53C457.185 385.15 457.098 384.873 456.931 384.7C456.771 384.527 456.525 384.44 456.191 384.44C455.885 384.44 455.581 384.533 455.281 384.72C454.988 384.9 454.778 385.153 454.651 385.48V395H452.491ZM462.672 395L461.042 383H463.242L463.902 389.04L464.192 393.38H464.812L465.112 389.04L465.802 383H468.002L466.332 395H462.672ZM472.911 395.17C471.778 395.17 470.955 394.937 470.441 394.47C469.935 394.003 469.651 393.237 469.591 392.17C469.578 391.79 469.568 391.327 469.561 390.78C469.555 390.227 469.551 389.65 469.551 389.05C469.551 388.443 469.555 387.86 469.561 387.3C469.568 386.74 469.578 386.26 469.591 385.86C469.665 384.773 469.955 383.997 470.461 383.53C470.968 383.063 471.778 382.83 472.891 382.83C473.985 382.83 474.778 383.06 475.271 383.52C475.771 383.973 476.048 384.723 476.101 385.77C476.108 385.95 476.111 386.233 476.111 386.62C476.118 387 476.118 387.437 476.111 387.93C476.111 388.417 476.101 388.903 476.081 389.39H471.721C471.721 389.877 471.725 390.37 471.731 390.87C471.745 391.363 471.755 391.87 471.761 392.39C471.775 392.81 471.868 393.103 472.041 393.27C472.221 393.437 472.508 393.52 472.901 393.52C473.275 393.52 473.541 393.437 473.701 393.27C473.861 393.103 473.951 392.81 473.971 392.39C473.985 392.19 473.991 391.937 473.991 391.63C473.991 391.323 473.985 390.983 473.971 390.61H476.081C476.095 390.79 476.105 391.037 476.111 391.35C476.118 391.657 476.115 391.93 476.101 392.17C476.048 393.237 475.778 394.003 475.291 394.47C474.811 394.937 474.018 395.17 472.911 395.17ZM471.721 387.84H473.991C473.998 387.513 474.001 387.193 474.001 386.88C474.001 386.567 473.998 386.293 473.991 386.06C473.985 385.82 473.978 385.647 473.971 385.54C473.951 385.16 473.858 384.89 473.691 384.73C473.531 384.563 473.265 384.48 472.891 384.48C472.498 384.48 472.215 384.563 472.041 384.73C471.868 384.89 471.775 385.16 471.761 385.54C471.755 385.947 471.748 386.34 471.741 386.72C471.735 387.1 471.728 387.473 471.721 387.84ZM478.249 395V383H480.409V384.32H480.809C480.896 383.807 481.069 383.45 481.329 383.25C481.596 383.05 481.946 382.95 482.379 382.95C482.519 382.95 482.656 382.953 482.789 382.96C482.929 382.967 483.039 382.973 483.119 382.98V384.66H482.399C481.739 384.66 481.262 384.77 480.969 384.99C480.682 385.21 480.496 385.537 480.409 385.97V395H478.249ZM487.496 395.17C486.422 395.17 485.656 394.937 485.196 394.47C484.742 394.003 484.496 393.237 484.456 392.17C484.449 391.93 484.446 391.657 484.446 391.35C484.452 391.043 484.462 390.797 484.476 390.61H486.376C486.369 390.983 486.366 391.323 486.366 391.63C486.366 391.93 486.369 392.183 486.376 392.39C486.389 392.81 486.486 393.103 486.666 393.27C486.846 393.437 487.122 393.52 487.496 393.52C487.929 393.52 488.239 393.437 488.426 393.27C488.619 393.103 488.719 392.81 488.726 392.39C488.726 392.21 488.726 392.077 488.726 391.99C488.726 391.897 488.726 391.81 488.726 391.73C488.732 391.643 488.732 391.517 488.726 391.35C488.726 391.003 488.672 390.73 488.566 390.53C488.459 390.323 488.262 390.177 487.976 390.09L486.796 389.73C486.269 389.563 485.829 389.36 485.476 389.12C485.122 388.873 484.856 388.557 484.676 388.17C484.502 387.783 484.412 387.297 484.406 386.71C484.406 386.563 484.406 386.423 484.406 386.29C484.406 386.157 484.409 386.017 484.416 385.87C484.422 384.783 484.659 384.007 485.126 383.54C485.599 383.067 486.426 382.83 487.606 382.83C488.692 382.83 489.456 383.06 489.896 383.52C490.342 383.973 490.589 384.727 490.636 385.78C490.642 386.02 490.642 386.297 490.636 386.61C490.636 386.917 490.629 387.163 490.616 387.35H488.646C488.652 387.183 488.656 386.983 488.656 386.75C488.662 386.517 488.662 386.29 488.656 386.07C488.656 385.85 488.652 385.673 488.646 385.54C488.632 385.147 488.549 384.873 488.396 384.72C488.249 384.56 487.986 384.48 487.606 384.48C487.206 384.48 486.929 384.56 486.776 384.72C486.622 384.873 486.539 385.147 486.526 385.54C486.519 385.733 486.512 385.89 486.506 386.01C486.499 386.123 486.499 386.3 486.506 386.54C486.506 386.913 486.552 387.22 486.646 387.46C486.739 387.7 486.959 387.873 487.306 387.98L488.366 388.27C489.159 388.47 489.752 388.797 490.146 389.25C490.539 389.697 490.736 390.36 490.736 391.24C490.736 391.393 490.732 391.557 490.726 391.73C490.726 391.903 490.722 392.07 490.716 392.23C490.709 393.277 490.459 394.03 489.966 394.49C489.479 394.943 488.656 395.17 487.496 395.17ZM494.883 395.14C494.117 395.14 493.55 394.94 493.183 394.54C492.823 394.133 492.607 393.477 492.533 392.57C492.527 392.423 492.52 392.263 492.513 392.09C492.513 391.917 492.517 391.76 492.523 391.62C492.563 391.113 492.667 390.67 492.833 390.29C493.007 389.91 493.273 389.57 493.633 389.27C493.993 388.97 494.477 388.683 495.083 388.41C495.403 388.263 495.723 388.13 496.043 388.01C496.37 387.883 496.7 387.767 497.033 387.66V385.61C497.033 385.23 496.96 384.947 496.813 384.76C496.667 384.573 496.387 384.48 495.973 384.48C495.62 384.48 495.363 384.56 495.203 384.72C495.05 384.873 494.963 385.147 494.943 385.54C494.937 385.667 494.93 385.843 494.923 386.07C494.923 386.297 494.923 386.53 494.923 386.77C494.93 387.003 494.937 387.197 494.943 387.35H492.843C492.837 387.183 492.83 386.94 492.823 386.62C492.817 386.3 492.817 386.017 492.823 385.77C492.85 385.083 492.97 384.523 493.183 384.09C493.397 383.657 493.733 383.34 494.193 383.14C494.653 382.933 495.267 382.83 496.033 382.83C496.833 382.83 497.46 382.943 497.913 383.17C498.373 383.39 498.7 383.74 498.893 384.22C499.087 384.7 499.183 385.327 499.183 386.1L499.173 395H497.013V393.81H496.713C496.52 394.257 496.287 394.59 496.013 394.81C495.747 395.03 495.37 395.14 494.883 395.14ZM495.733 393.56C496.033 393.56 496.29 393.473 496.503 393.3C496.723 393.127 496.897 392.887 497.023 392.58V389.16C496.79 389.233 496.557 389.32 496.323 389.42C496.09 389.513 495.853 389.64 495.613 389.8C495.247 390.02 495 390.283 494.873 390.59C494.753 390.89 494.683 391.233 494.663 391.62C494.657 391.747 494.653 391.877 494.653 392.01C494.653 392.143 494.657 392.277 494.663 392.41C494.697 392.783 494.803 393.07 494.983 393.27C495.17 393.463 495.42 393.56 495.733 393.56Z" fill="#FEFEFE"/>
<path d="M355 540.02H496" stroke="#FEFEFE" stroke-width="3" stroke-linecap="round"/>
<path d="M369.53 537.756C369.835 532.694 373.496 522.369 385.699 521.566C392.41 521.125 403.881 524.919 404.003 537.756C403.85 544.013 406.962 556.812 420.629 557.958C425.764 558.388 436.675 555.666 439.238 541.338C440.425 534.701 443.204 521.566 457.847 521.566C462.728 521.566 472.887 524.804 474.473 537.756" stroke="#0CAE93" stroke-width="7" stroke-linecap="round"/>
<path d="M474.474 539.244C474.169 544.306 470.508 554.631 458.305 555.434C451.594 555.875 440.123 552.081 440.001 539.244C440.154 532.987 437.042 520.188 423.375 519.042C418.24 518.612 407.329 521.334 404.766 535.662C403.579 542.299 400.8 555.434 386.157 555.434C381.276 555.434 371.117 552.196 369.531 539.244" stroke="#9867F8" stroke-width="7" stroke-linecap="round"/>
<path d="M345.25 505.17C344.037 505.17 343.17 504.913 342.65 504.4C342.137 503.887 341.87 503.037 341.85 501.85C341.837 501.103 341.827 500.32 341.82 499.5C341.813 498.68 341.81 497.847 341.81 497C341.81 496.153 341.813 495.32 341.82 494.5C341.827 493.673 341.837 492.883 341.85 492.13C341.863 491.09 342.137 490.283 342.67 489.71C343.203 489.13 344.06 488.84 345.24 488.84C346.413 488.84 347.263 489.097 347.79 489.61C348.317 490.117 348.6 490.963 348.64 492.15C348.647 492.383 348.65 492.663 348.65 492.99C348.65 493.31 348.647 493.63 348.64 493.95C348.633 494.263 348.627 494.54 348.62 494.78H346.46C346.467 494.487 346.47 494.163 346.47 493.81C346.477 493.457 346.48 493.103 346.48 492.75C346.48 492.39 346.477 492.063 346.47 491.77C346.463 491.377 346.357 491.087 346.15 490.9C345.95 490.713 345.647 490.62 345.24 490.62C344.833 490.62 344.53 490.713 344.33 490.9C344.13 491.087 344.023 491.377 344.01 491.77C343.983 492.617 343.963 493.48 343.95 494.36C343.943 495.233 343.94 496.113 343.94 497C343.94 497.887 343.943 498.77 343.95 499.65C343.963 500.53 343.983 501.39 344.01 502.23C344.023 502.623 344.13 502.917 344.33 503.11C344.537 503.297 344.843 503.39 345.25 503.39C345.683 503.39 346.007 503.297 346.22 503.11C346.433 502.917 346.543 502.623 346.55 502.23C346.557 501.93 346.56 501.597 346.56 501.23C346.567 500.857 346.567 500.487 346.56 500.12C346.553 499.753 346.547 499.42 346.54 499.12H348.71C348.723 499.56 348.73 500.017 348.73 500.49C348.737 500.957 348.733 501.41 348.72 501.85C348.68 503.037 348.39 503.887 347.85 504.4C347.317 504.913 346.45 505.17 345.25 505.17ZM352.918 505.14C352.152 505.14 351.585 504.94 351.218 504.54C350.858 504.133 350.642 503.477 350.568 502.57C350.562 502.423 350.555 502.263 350.548 502.09C350.548 501.917 350.552 501.76 350.558 501.62C350.598 501.113 350.702 500.67 350.868 500.29C351.042 499.91 351.308 499.57 351.668 499.27C352.028 498.97 352.512 498.683 353.118 498.41C353.438 498.263 353.758 498.13 354.078 498.01C354.405 497.883 354.735 497.767 355.068 497.66V495.61C355.068 495.23 354.995 494.947 354.848 494.76C354.702 494.573 354.422 494.48 354.008 494.48C353.655 494.48 353.398 494.56 353.238 494.72C353.085 494.873 352.998 495.147 352.978 495.54C352.972 495.667 352.965 495.843 352.958 496.07C352.958 496.297 352.958 496.53 352.958 496.77C352.965 497.003 352.972 497.197 352.978 497.35H350.878C350.872 497.183 350.865 496.94 350.858 496.62C350.852 496.3 350.852 496.017 350.858 495.77C350.885 495.083 351.005 494.523 351.218 494.09C351.432 493.657 351.768 493.34 352.228 493.14C352.688 492.933 353.302 492.83 354.068 492.83C354.868 492.83 355.495 492.943 355.948 493.17C356.408 493.39 356.735 493.74 356.928 494.22C357.122 494.7 357.218 495.327 357.218 496.1L357.208 505H355.048V503.81H354.748C354.555 504.257 354.322 504.59 354.048 504.81C353.782 505.03 353.405 505.14 352.918 505.14ZM353.768 503.56C354.068 503.56 354.325 503.473 354.538 503.3C354.758 503.127 354.932 502.887 355.058 502.58V499.16C354.825 499.233 354.592 499.32 354.358 499.42C354.125 499.513 353.888 499.64 353.648 499.8C353.282 500.02 353.035 500.283 352.908 500.59C352.788 500.89 352.718 501.233 352.698 501.62C352.692 501.747 352.688 501.877 352.688 502.01C352.688 502.143 352.692 502.277 352.698 502.41C352.732 502.783 352.838 503.07 353.018 503.27C353.205 503.463 353.455 503.56 353.768 503.56ZM359.581 505V493H361.741V494.18H362.141C362.374 493.747 362.634 493.413 362.921 493.18C363.214 492.947 363.628 492.83 364.161 492.83C364.894 492.83 365.454 493.053 365.841 493.5C366.234 493.94 366.434 494.677 366.441 495.71V505H364.281V495.53C364.274 495.15 364.188 494.873 364.021 494.7C363.861 494.527 363.614 494.44 363.281 494.44C362.974 494.44 362.671 494.533 362.371 494.72C362.078 494.9 361.868 495.153 361.741 495.48V505H359.581ZM373.042 497.35C373.048 497.183 373.052 496.983 373.052 496.75C373.058 496.517 373.058 496.29 373.052 496.07C373.052 495.85 373.052 495.673 373.052 495.54C373.038 495.147 372.945 494.873 372.772 494.72C372.605 494.56 372.328 494.48 371.942 494.48C371.555 494.48 371.275 494.56 371.102 494.72C370.935 494.873 370.845 495.147 370.832 495.54C370.818 496.133 370.808 496.717 370.802 497.29C370.795 497.857 370.792 498.42 370.792 498.98C370.792 499.54 370.795 500.103 370.802 500.67C370.808 501.23 370.818 501.803 370.832 502.39C370.845 502.81 370.938 503.103 371.112 503.27C371.285 503.437 371.572 503.52 371.972 503.52C372.345 503.52 372.615 503.437 372.782 503.27C372.948 503.103 373.038 502.81 373.052 502.39C373.058 502.183 373.062 501.93 373.062 501.63C373.062 501.323 373.055 500.983 373.042 500.61H375.152C375.165 500.797 375.175 501.043 375.182 501.35C375.188 501.657 375.185 501.93 375.172 502.17C375.125 503.237 374.855 504.003 374.362 504.47C373.868 504.937 373.072 505.17 371.972 505.17C370.845 505.17 370.025 504.937 369.512 504.47C368.998 504.003 368.715 503.237 368.662 502.17C368.648 501.79 368.638 501.327 368.632 500.78C368.625 500.227 368.622 499.65 368.622 499.05C368.622 498.443 368.625 497.86 368.632 497.3C368.638 496.74 368.648 496.26 368.662 495.86C368.735 494.773 369.022 493.997 369.522 493.53C370.028 493.063 370.835 492.83 371.942 492.83C373.055 492.83 373.862 493.06 374.362 493.52C374.862 493.973 375.132 494.727 375.172 495.78C375.178 496.02 375.178 496.297 375.172 496.61C375.172 496.917 375.165 497.163 375.152 497.35H373.042ZM380.47 505.17C379.337 505.17 378.513 504.937 378 504.47C377.493 504.003 377.21 503.237 377.15 502.17C377.137 501.79 377.127 501.327 377.12 500.78C377.113 500.227 377.11 499.65 377.11 499.05C377.11 498.443 377.113 497.86 377.12 497.3C377.127 496.74 377.137 496.26 377.15 495.86C377.223 494.773 377.513 493.997 378.02 493.53C378.527 493.063 379.337 492.83 380.45 492.83C381.543 492.83 382.337 493.06 382.83 493.52C383.33 493.973 383.607 494.723 383.66 495.77C383.667 495.95 383.67 496.233 383.67 496.62C383.677 497 383.677 497.437 383.67 497.93C383.67 498.417 383.66 498.903 383.64 499.39H379.28C379.28 499.877 379.283 500.37 379.29 500.87C379.303 501.363 379.313 501.87 379.32 502.39C379.333 502.81 379.427 503.103 379.6 503.27C379.78 503.437 380.067 503.52 380.46 503.52C380.833 503.52 381.1 503.437 381.26 503.27C381.42 503.103 381.51 502.81 381.53 502.39C381.543 502.19 381.55 501.937 381.55 501.63C381.55 501.323 381.543 500.983 381.53 500.61H383.64C383.653 500.79 383.663 501.037 383.67 501.35C383.677 501.657 383.673 501.93 383.66 502.17C383.607 503.237 383.337 504.003 382.85 504.47C382.37 504.937 381.577 505.17 380.47 505.17ZM379.28 497.84H381.55C381.557 497.513 381.56 497.193 381.56 496.88C381.56 496.567 381.557 496.293 381.55 496.06C381.543 495.82 381.537 495.647 381.53 495.54C381.51 495.16 381.417 494.89 381.25 494.73C381.09 494.563 380.823 494.48 380.45 494.48C380.057 494.48 379.773 494.563 379.6 494.73C379.427 494.89 379.333 495.16 379.32 495.54C379.313 495.947 379.307 496.34 379.3 496.72C379.293 497.1 379.287 497.473 379.28 497.84ZM385.671 505V489H387.831V505H385.671ZM392.079 505.14C391.312 505.14 390.745 504.94 390.379 504.54C390.019 504.133 389.802 503.477 389.729 502.57C389.722 502.423 389.715 502.263 389.709 502.09C389.709 501.917 389.712 501.76 389.719 501.62C389.759 501.113 389.862 500.67 390.029 500.29C390.202 499.91 390.469 499.57 390.829 499.27C391.189 498.97 391.672 498.683 392.279 498.41C392.599 498.263 392.919 498.13 393.239 498.01C393.565 497.883 393.895 497.767 394.229 497.66V495.61C394.229 495.23 394.155 494.947 394.009 494.76C393.862 494.573 393.582 494.48 393.169 494.48C392.815 494.48 392.559 494.56 392.399 494.72C392.245 494.873 392.159 495.147 392.139 495.54C392.132 495.667 392.125 495.843 392.119 496.07C392.119 496.297 392.119 496.53 392.119 496.77C392.125 497.003 392.132 497.197 392.139 497.35H390.039C390.032 497.183 390.025 496.94 390.019 496.62C390.012 496.3 390.012 496.017 390.019 495.77C390.045 495.083 390.165 494.523 390.379 494.09C390.592 493.657 390.929 493.34 391.389 493.14C391.849 492.933 392.462 492.83 393.229 492.83C394.029 492.83 394.655 492.943 395.109 493.17C395.569 493.39 395.895 493.74 396.089 494.22C396.282 494.7 396.379 495.327 396.379 496.1L396.369 505H394.209V503.81H393.909C393.715 504.257 393.482 504.59 393.209 504.81C392.942 505.03 392.565 505.14 392.079 505.14ZM392.929 503.56C393.229 503.56 393.485 503.473 393.699 503.3C393.919 503.127 394.092 502.887 394.219 502.58V499.16C393.985 499.233 393.752 499.32 393.519 499.42C393.285 499.513 393.049 499.64 392.809 499.8C392.442 500.02 392.195 500.283 392.069 500.59C391.949 500.89 391.879 501.233 391.859 501.62C391.852 501.747 391.849 501.877 391.849 502.01C391.849 502.143 391.852 502.277 391.859 502.41C391.892 502.783 391.999 503.07 392.179 503.27C392.365 503.463 392.615 503.56 392.929 503.56ZM398.741 505V493H400.901V494.18H401.291C401.531 493.74 401.791 493.407 402.071 493.18C402.358 492.947 402.775 492.83 403.321 492.83C403.861 492.83 404.305 492.947 404.651 493.18C404.998 493.413 405.248 493.793 405.401 494.32H405.771C406.011 493.873 406.295 493.513 406.621 493.24C406.948 492.967 407.388 492.83 407.941 492.83C408.668 492.83 409.225 493.053 409.611 493.5C410.005 493.94 410.201 494.677 410.201 495.71V505H408.041V495.53C408.041 495.15 407.961 494.873 407.801 494.7C407.641 494.527 407.395 494.44 407.061 494.44C406.755 494.44 406.465 494.54 406.191 494.74C405.925 494.933 405.725 495.193 405.591 495.52V505H403.431V495.53C403.425 495.15 403.341 494.873 403.181 494.7C403.021 494.527 402.775 494.44 402.441 494.44C402.121 494.44 401.815 494.527 401.521 494.7C401.235 494.873 401.028 495.133 400.901 495.48V505H398.741ZM415.732 505.17C414.598 505.17 413.775 504.937 413.262 504.47C412.755 504.003 412.472 503.237 412.412 502.17C412.398 501.79 412.388 501.327 412.382 500.78C412.375 500.227 412.372 499.65 412.372 499.05C412.372 498.443 412.375 497.86 412.382 497.3C412.388 496.74 412.398 496.26 412.412 495.86C412.485 494.773 412.775 493.997 413.282 493.53C413.788 493.063 414.598 492.83 415.712 492.83C416.805 492.83 417.598 493.06 418.092 493.52C418.592 493.973 418.868 494.723 418.922 495.77C418.928 495.95 418.932 496.233 418.932 496.62C418.938 497 418.938 497.437 418.932 497.93C418.932 498.417 418.922 498.903 418.902 499.39H414.542C414.542 499.877 414.545 500.37 414.552 500.87C414.565 501.363 414.575 501.87 414.582 502.39C414.595 502.81 414.688 503.103 414.862 503.27C415.042 503.437 415.328 503.52 415.722 503.52C416.095 503.52 416.362 503.437 416.522 503.27C416.682 503.103 416.772 502.81 416.792 502.39C416.805 502.19 416.812 501.937 416.812 501.63C416.812 501.323 416.805 500.983 416.792 500.61H418.902C418.915 500.79 418.925 501.037 418.932 501.35C418.938 501.657 418.935 501.93 418.922 502.17C418.868 503.237 418.598 504.003 418.112 504.47C417.632 504.937 416.838 505.17 415.732 505.17ZM414.542 497.84H416.812C416.818 497.513 416.822 497.193 416.822 496.88C416.822 496.567 416.818 496.293 416.812 496.06C416.805 495.82 416.798 495.647 416.792 495.54C416.772 495.16 416.678 494.89 416.512 494.73C416.352 494.563 416.085 494.48 415.712 494.48C415.318 494.48 415.035 494.563 414.862 494.73C414.688 494.89 414.595 495.16 414.582 495.54C414.575 495.947 414.568 496.34 414.562 496.72C414.555 497.1 414.548 497.473 414.542 497.84ZM421.069 505V493H423.229V494.18H423.629C423.863 493.747 424.123 493.413 424.409 493.18C424.703 492.947 425.116 492.83 425.649 492.83C426.383 492.83 426.943 493.053 427.329 493.5C427.723 493.94 427.923 494.677 427.929 495.71V505H425.769V495.53C425.763 495.15 425.676 494.873 425.509 494.7C425.349 494.527 425.103 494.44 424.769 494.44C424.463 494.44 424.159 494.533 423.859 494.72C423.566 494.9 423.356 495.153 423.229 495.48V505H421.069ZM434.07 505.17C432.843 505.17 431.973 504.937 431.46 504.47C430.953 504.003 430.7 503.237 430.7 502.17V494.66H429.72V493H430.72V489.6H432.89V493H434.8V494.66H432.86V502.41C432.86 502.83 432.933 503.123 433.08 503.29C433.233 503.45 433.567 503.53 434.08 503.53C434.253 503.53 434.407 503.527 434.54 503.52C434.673 503.513 434.827 503.503 435 503.49V505.07C434.86 505.103 434.71 505.127 434.55 505.14C434.397 505.16 434.237 505.17 434.07 505.17ZM439.899 505.17C439.099 505.17 438.459 505.06 437.979 504.84C437.505 504.62 437.159 504.267 436.939 503.78C436.719 503.293 436.585 502.653 436.539 501.86C436.525 501.48 436.512 501.043 436.499 500.55C436.492 500.057 436.489 499.547 436.489 499.02C436.489 498.493 436.492 497.98 436.499 497.48C436.512 496.98 436.525 496.53 436.539 496.13C436.585 495.343 436.719 494.71 436.939 494.23C437.159 493.743 437.505 493.39 437.979 493.17C438.459 492.943 439.099 492.83 439.899 492.83C440.712 492.83 441.352 492.943 441.819 493.17C442.292 493.39 442.639 493.743 442.859 494.23C443.079 494.71 443.209 495.343 443.249 496.13C443.262 496.517 443.272 496.957 443.279 497.45C443.285 497.937 443.289 498.447 443.289 498.98C443.289 499.507 443.285 500.02 443.279 500.52C443.272 501.013 443.262 501.46 443.249 501.86C443.209 502.647 443.079 503.283 442.859 503.77C442.639 504.257 442.292 504.613 441.819 504.84C441.352 505.06 440.712 505.17 439.899 505.17ZM439.899 503.52C440.319 503.52 440.619 503.43 440.799 503.25C440.979 503.07 441.072 502.78 441.079 502.38C441.099 501.793 441.112 501.22 441.119 500.66C441.132 500.1 441.139 499.543 441.139 498.99C441.139 498.437 441.132 497.883 441.119 497.33C441.112 496.77 441.099 496.197 441.079 495.61C441.072 495.217 440.979 494.93 440.799 494.75C440.625 494.57 440.325 494.48 439.899 494.48C439.485 494.48 439.185 494.57 438.999 494.75C438.812 494.93 438.712 495.217 438.699 495.61C438.685 496.197 438.672 496.77 438.659 497.33C438.652 497.89 438.649 498.447 438.649 499C438.649 499.553 438.652 500.11 438.659 500.67C438.672 501.23 438.685 501.8 438.699 502.38C438.712 502.78 438.812 503.07 438.999 503.25C439.185 503.43 439.485 503.52 439.899 503.52ZM452.465 505.17C451.732 505.17 451.175 504.947 450.795 504.5C450.422 504.053 450.212 503.317 450.165 502.29C450.152 501.85 450.142 501.35 450.135 500.79C450.129 500.223 450.125 499.64 450.125 499.04C450.125 498.44 450.129 497.853 450.135 497.28C450.142 496.707 450.152 496.183 450.165 495.71C450.212 494.677 450.429 493.94 450.815 493.5C451.209 493.053 451.769 492.83 452.495 492.83C453.042 492.83 453.455 492.947 453.735 493.18C454.015 493.407 454.275 493.74 454.515 494.18H454.845V489H457.005V505H454.845V503.82H454.505C454.265 504.253 454.002 504.587 453.715 504.82C453.429 505.053 453.012 505.17 452.465 505.17ZM453.305 503.56C453.632 503.56 453.939 503.473 454.225 503.3C454.512 503.12 454.719 502.86 454.845 502.52V495.48C454.719 495.133 454.512 494.873 454.225 494.7C453.939 494.527 453.632 494.44 453.305 494.44C452.979 494.44 452.739 494.527 452.585 494.7C452.432 494.873 452.349 495.15 452.335 495.53C452.302 496.277 452.282 497.06 452.275 497.88C452.269 498.7 452.269 499.507 452.275 500.3C452.282 501.087 452.302 501.81 452.335 502.47C452.349 502.85 452.429 503.127 452.575 503.3C452.729 503.473 452.972 503.56 453.305 503.56ZM462.325 505.17C461.192 505.17 460.369 504.937 459.855 504.47C459.349 504.003 459.065 503.237 459.005 502.17C458.992 501.79 458.982 501.327 458.975 500.78C458.969 500.227 458.965 499.65 458.965 499.05C458.965 498.443 458.969 497.86 458.975 497.3C458.982 496.74 458.992 496.26 459.005 495.86C459.079 494.773 459.369 493.997 459.875 493.53C460.382 493.063 461.192 492.83 462.305 492.83C463.399 492.83 464.192 493.06 464.685 493.52C465.185 493.973 465.462 494.723 465.515 495.77C465.522 495.95 465.525 496.233 465.525 496.62C465.532 497 465.532 497.437 465.525 497.93C465.525 498.417 465.515 498.903 465.495 499.39H461.135C461.135 499.877 461.139 500.37 461.145 500.87C461.159 501.363 461.169 501.87 461.175 502.39C461.189 502.81 461.282 503.103 461.455 503.27C461.635 503.437 461.922 503.52 462.315 503.52C462.689 503.52 462.955 503.437 463.115 503.27C463.275 503.103 463.365 502.81 463.385 502.39C463.399 502.19 463.405 501.937 463.405 501.63C463.405 501.323 463.399 500.983 463.385 500.61H465.495C465.509 500.79 465.519 501.037 465.525 501.35C465.532 501.657 465.529 501.93 465.515 502.17C465.462 503.237 465.192 504.003 464.705 504.47C464.225 504.937 463.432 505.17 462.325 505.17ZM461.135 497.84H463.405C463.412 497.513 463.415 497.193 463.415 496.88C463.415 496.567 463.412 496.293 463.405 496.06C463.399 495.82 463.392 495.647 463.385 495.54C463.365 495.16 463.272 494.89 463.105 494.73C462.945 494.563 462.679 494.48 462.305 494.48C461.912 494.48 461.629 494.563 461.455 494.73C461.282 494.89 461.189 495.16 461.175 495.54C461.169 495.947 461.162 496.34 461.155 496.72C461.149 497.1 461.142 497.473 461.135 497.84ZM472.44 505V493H474.6V494.32H475C475.087 493.807 475.26 493.45 475.52 493.25C475.787 493.05 476.137 492.95 476.57 492.95C476.71 492.95 476.847 492.953 476.98 492.96C477.12 492.967 477.23 492.973 477.31 492.98V494.66H476.59C475.93 494.66 475.454 494.77 475.16 494.99C474.874 495.21 474.687 495.537 474.6 495.97V505H472.44ZM481.167 505.17C480.44 505.17 479.87 504.947 479.457 504.5C479.044 504.053 478.837 503.317 478.837 502.29V493H480.997V502.47C480.997 502.85 481.074 503.127 481.227 503.3C481.387 503.473 481.634 503.56 481.967 503.56C482.28 503.56 482.584 503.47 482.877 503.29C483.177 503.103 483.387 502.847 483.507 502.52V493H485.667V505H483.507V503.82H483.187C482.934 504.287 482.644 504.63 482.317 504.85C481.997 505.063 481.614 505.17 481.167 505.17ZM488.089 505V493H490.249V505H488.089ZM488.529 492.2L490.199 489.68H491.659L489.919 492.2H488.529ZM494.821 505.17C494.088 505.17 493.531 504.947 493.151 504.5C492.778 504.053 492.568 503.317 492.521 502.29C492.508 501.85 492.498 501.35 492.491 500.79C492.484 500.223 492.481 499.64 492.481 499.04C492.481 498.44 492.484 497.853 492.491 497.28C492.498 496.707 492.508 496.183 492.521 495.71C492.568 494.677 492.784 493.94 493.171 493.5C493.564 493.053 494.124 492.83 494.851 492.83C495.398 492.83 495.811 492.947 496.091 493.18C496.371 493.407 496.631 493.74 496.871 494.18H497.201V489H499.361V505H497.201V503.82H496.861C496.621 504.253 496.358 504.587 496.071 504.82C495.784 505.053 495.368 505.17 494.821 505.17ZM495.661 503.56C495.988 503.56 496.294 503.473 496.581 503.3C496.868 503.12 497.074 502.86 497.201 502.52V495.48C497.074 495.133 496.868 494.873 496.581 494.7C496.294 494.527 495.988 494.44 495.661 494.44C495.334 494.44 495.094 494.527 494.941 494.7C494.788 494.873 494.704 495.15 494.691 495.53C494.658 496.277 494.638 497.06 494.631 497.88C494.624 498.7 494.624 499.507 494.631 500.3C494.638 501.087 494.658 501.81 494.691 502.47C494.704 502.85 494.784 503.127 494.931 503.3C495.084 503.473 495.328 503.56 495.661 503.56ZM504.731 505.17C503.931 505.17 503.291 505.06 502.811 504.84C502.337 504.62 501.991 504.267 501.771 503.78C501.551 503.293 501.417 502.653 501.371 501.86C501.357 501.48 501.344 501.043 501.331 500.55C501.324 500.057 501.321 499.547 501.321 499.02C501.321 498.493 501.324 497.98 501.331 497.48C501.344 496.98 501.357 496.53 501.371 496.13C501.417 495.343 501.551 494.71 501.771 494.23C501.991 493.743 502.337 493.39 502.811 493.17C503.291 492.943 503.931 492.83 504.731 492.83C505.544 492.83 506.184 492.943 506.651 493.17C507.124 493.39 507.471 493.743 507.691 494.23C507.911 494.71 508.041 495.343 508.081 496.13C508.094 496.517 508.104 496.957 508.111 497.45C508.117 497.937 508.121 498.447 508.121 498.98C508.121 499.507 508.117 500.02 508.111 500.52C508.104 501.013 508.094 501.46 508.081 501.86C508.041 502.647 507.911 503.283 507.691 503.77C507.471 504.257 507.124 504.613 506.651 504.84C506.184 505.06 505.544 505.17 504.731 505.17ZM504.731 503.52C505.151 503.52 505.451 503.43 505.631 503.25C505.811 503.07 505.904 502.78 505.911 502.38C505.931 501.793 505.944 501.22 505.951 500.66C505.964 500.1 505.971 499.543 505.971 498.99C505.971 498.437 505.964 497.883 505.951 497.33C505.944 496.77 505.931 496.197 505.911 495.61C505.904 495.217 505.811 494.93 505.631 494.75C505.457 494.57 505.157 494.48 504.731 494.48C504.317 494.48 504.017 494.57 503.831 494.75C503.644 494.93 503.544 495.217 503.531 495.61C503.517 496.197 503.504 496.77 503.491 497.33C503.484 497.89 503.481 498.447 503.481 499C503.481 499.553 503.484 500.11 503.491 500.67C503.504 501.23 503.517 501.8 503.531 502.38C503.544 502.78 503.644 503.07 503.831 503.25C504.017 503.43 504.317 503.52 504.731 503.52Z" fill="#FEFEFE"/>
<defs>
<filter id="filter0_f_255_78" x="0" y="0" width="854" height="838" filterUnits="userSpaceOnUse" color-interpolation-filters="sRGB">
<feFlood flood-opacity="0" result="BackgroundImageFix"/>
<feBlend mode="normal" in="SourceGraphic" in2="BackgroundImageFix" result="shape"/>
<feGaussianBlur stdDeviation="135" result="effect1_foregroundBlur_255_78"/>
</filter>
<linearGradient id="paint0_linear_255_78" x1="242.822" y1="287.373" x2="327.387" y2="337.007" gradientUnits="userSpaceOnUse">
<stop stop-color="#9EBDC1"/>
<stop offset="1" stop-color="#4A595B"/>
</linearGradient>
<linearGradient id="paint1_linear_255_78" x1="363.822" y1="287.373" x2="448.387" y2="337.007" gradientUnits="userSpaceOnUse">
<stop stop-color="#9EBDC1"/>
<stop offset="1" stop-color="#4A595B"/>
</linearGradient>
<linearGradient id="paint2_linear_255_78" x1="282.822" y1="381.373" x2="367.387" y2="431.007" gradientUnits="userSpaceOnUse">
<stop stop-color="#9EBDC1"/>
<stop offset="1" stop-color="#4A595B"/>
</linearGradient>
<linearGradient id="paint3_linear_255_78" x1="520.822" y1="381.373" x2="605.387" y2="431.007" gradientUnits="userSpaceOnUse">
<stop stop-color="#9EBDC1"/>
<stop offset="1" stop-color="#4A595B"/>
</linearGradient>
<linearGradient id="paint4_linear_255_78" x1="363.822" y1="475.373" x2="448.387" y2="525.007" gradientUnits="userSpaceOnUse">
<stop stop-color="#9EBDC1"/>
<stop offset="1" stop-color="#4A595B"/>
</linearGradient>
<linearGradient id="paint5_linear_255_78" x1="491.822" y1="475.373" x2="576.387" y2="525.007" gradientUnits="userSpaceOnUse">
<stop stop-color="#9EBDC1"/>
<stop offset="1" stop-color="#4A595B"/>
</linearGradient>
<linearGradient id="paint6_linear_255_78" x1="403.822" y1="381.373" x2="488.387" y2="431.007" gradientUnits="userSpaceOnUse">
<stop stop-color="#9EBDC1"/>
<stop offset="1" stop-color="#4A595B"/>
</linearGradient>
<linearGradient id="paint7_linear_255_78" x1="235.822" y1="475.373" x2="320.387" y2="525.007" gradientUnits="userSpaceOnUse">
<stop stop-color="#9EBDC1"/>
<stop offset="1" stop-color="#4A595B"/>
</linearGradient>
<linearGradient id="paint8_linear_255_78" x1="483.822" y1="287.373" x2="568.387" y2="337.007" gradientUnits="userSpaceOnUse">
<stop stop-color="#9EBDC1"/>
<stop offset="1" stop-color="#4A595B"/>
</linearGradient>
</defs>
</svg>
